<svg id="_3" data-name="3" xmlns="http://www.w3.org/2000/svg" width="324.969" height="70.344" viewBox="0 0 324.969 70.344">
  <defs>
    <style>
      .cls-1 {
        fill: #b8596f;
      }

      .cls-2 {
        fill: #fff;
      }

      .cls-2, .cls-3 {
        fill-rule: evenodd;
      }
    </style>
  </defs>
  <circle id="Эллипс_1" data-name="Эллипс 1" class="cls-1" cx="26" cy="26" r="26"/>
  <path class="cls-2" d="M446.463,192.172a18.025,18.025,0,0,1,.811-2.577,4.309,4.309,0,0,0,2.873,1.135c4.494,0,8.113-6.019,8.113-11a1.591,1.591,0,0,0-1.593-1.583c-5.017,0-11.075,3.6-11.075,8.06a4.119,4.119,0,0,0,.666,2.225,17.551,17.551,0,0,0-.925,2.52q-0.371-.594-0.771-1.143a3.08,3.08,0,0,0,.468-1.615c0-3.242-4.357-5.852-7.964-5.852a1.324,1.324,0,0,0-1.326,1.318c0,3.583,2.627,7.911,5.89,7.911a3.177,3.177,0,0,0,1.973-.7c0.3,0.42.578,0.859,0.848,1.329A9.857,9.857,0,1,0,446.463,192.172Zm10.2-12.628a0.184,0.184,0,0,1,.185.184c0,4.323-3.094,9.6-6.7,9.6a2.994,2.994,0,0,1-2.171-.97c-0.03-.03-0.051-0.063-0.08-0.094,1.631-3.047,4.083-4.686,7.123-5.984a0.7,0.7,0,0,0,.369-0.918,0.7,0.7,0,0,0-.925-0.366,14.9,14.9,0,0,0-7.375,5.871,2.713,2.713,0,0,1-.088-0.665C447,182.617,452.315,179.544,456.667,179.544Zm-13.09,9.034a19.755,19.755,0,0,0-3.928-3.324,0.7,0.7,0,0,0-.976.194,0.7,0.7,0,0,0,.195.969,17.892,17.892,0,0,1,3.881,3.349,1.792,1.792,0,0,1-1.119.4c-2.349,0-4.443-3.574-4.482-6.431,2.876,0.039,6.474,2.119,6.474,4.453A1.757,1.757,0,0,1,443.577,188.578Zm-4.093,16.162a2.508,2.508,0,0,0-.562,1.522v0.779a8.3,8.3,0,0,1-1.749-4.62,2.187,2.187,0,0,1,.644.815,3.28,3.28,0,0,0,.515.754,2.066,2.066,0,0,0,1.31.513C439.6,204.569,439.55,204.646,439.484,204.74Zm14.553-2.824a8.446,8.446,0,0,1-13.707,6.55v-2.2a1.184,1.184,0,0,1,.31-0.724,2.1,2.1,0,0,0,.485-1.251,1.231,1.231,0,0,0-1.325-1.173,1.11,1.11,0,0,1-.472-0.112,2.511,2.511,0,0,1-.278-0.44,2.951,2.951,0,0,0-1.838-1.638,8.433,8.433,0,0,1,8.38-7.4c0.289,0,.574.015,0.856,0.043a1.886,1.886,0,0,0-.557.344,0.694,0.694,0,0,0-.033.955c-0.049.029-.11,0.063-0.187,0.1a3.185,3.185,0,0,0-1.727,1.977,1.255,1.255,0,0,0,.355,1.117l0.023,0.022a2.988,2.988,0,0,0-.818.57,2.484,2.484,0,0,0-.624,2.167c0.009,0.108.02,0.209,0.02,0.3a1.672,1.672,0,0,0,1.9,1.489,6.63,6.63,0,0,1,2.089.281,2.656,2.656,0,0,0,.257.919,1.08,1.08,0,0,1,.133.472l-0.045.134a1.54,1.54,0,0,0-.353,1.052,3.614,3.614,0,0,0,.976,2.048,0.709,0.709,0,0,0,.523.231,0.694,0.694,0,0,0,.175-0.022c0.258-.065,2.518-0.686,2.518-2.257a0.474,0.474,0,0,1,.225-0.477,1.364,1.364,0,0,0,.571-1.1,4.723,4.723,0,0,1,1.011-1.514,0.7,0.7,0,0,0-.09-1.021,5.207,5.207,0,0,1-.685-0.653c0.035,0,.068,0,0.1,0a2.86,2.86,0,0,0,1.544-.931A8.285,8.285,0,0,1,454.037,201.916Zm-7.032-2.737a2.8,2.8,0,0,0,1.371.275l0.454,0a8.669,8.669,0,0,0,1.165-.032,1.555,1.555,0,0,0,.106.748,5.149,5.149,0,0,0,1.273,1.812,3.507,3.507,0,0,0-.893,1.853,0.789,0.789,0,0,1-.108.1,1.827,1.827,0,0,0-.712,1.533,1.615,1.615,0,0,1-1.032.763,1.739,1.739,0,0,1-.344-0.763l0.059-.2a1.455,1.455,0,0,0,.339-0.988,2.377,2.377,0,0,0-.251-1.031,1.226,1.226,0,0,1-.147-0.55c0-1.231-1.9-1.49-3.488-1.49a1.469,1.469,0,0,1-.49-0.091c0-.131-0.011-0.275-0.025-0.426a1.15,1.15,0,0,1,.217-1.055,2.874,2.874,0,0,1,1.889-.586A1.146,1.146,0,0,1,447.005,199.179Zm-0.314-1.509a2.241,2.241,0,0,1,.89-0.192,4.351,4.351,0,0,1,2.506.5,3.744,3.744,0,0,1-1.233.088l-0.478-.006a1.449,1.449,0,0,1-.77-0.14A2.34,2.34,0,0,0,446.691,197.67Zm5.533,1.573a2.845,2.845,0,0,0-.949-0.533,1.437,1.437,0,0,0,.192-0.746c0-1.2-1.417-1.884-3.886-1.884a3.887,3.887,0,0,0-1.724.43,2.534,2.534,0,0,1,.452-0.294,1.735,1.735,0,0,0,1.083-1.179,1.038,1.038,0,0,0-.009-0.331,11.832,11.832,0,0,1,1.955-.3,8.455,8.455,0,0,1,3.867,3.9A6.467,6.467,0,0,1,452.224,199.243Z" transform="translate(-421 -169)"/>
  <path id="Роджерс_определял_терапию_как_оведенческая_терапия_возможна._" data-name="Роджерс определял терапию как,  оведенческая терапия возможна. " class="cls-3" d="M492.792,216.1h1.723v-3.152h1.947c2.157,0,3.922-1.148,3.922-3.348,0-2-1.443-3.3-3.726-3.3h-3.866v9.8Zm1.723-4.707v-3.53h2c1.289,0,2.115.6,2.115,1.751a1.85,1.85,0,0,1-2.115,1.779h-2Zm11.229,4.875a3.86,3.86,0,1,0-3.922-3.852A3.867,3.867,0,0,0,505.744,216.267Zm0.028-1.471a2.292,2.292,0,0,1-2.256-2.381,2.228,2.228,0,0,1,2.228-2.381,2.286,2.286,0,0,1,2.269,2.381A2.238,2.238,0,0,1,505.772,214.8Zm4.939,3.082h1.415l0.168-1.779h5.183v1.779h1.415l0.224-3.236h-1.051V208.7h-5.729v0.91a11.645,11.645,0,0,1-.826,5.029h-0.8v3.236Zm2.536-3.236a8.384,8.384,0,0,0,.686-3.5v-0.98h2.437v4.482h-3.123Zm6.62,1.457h1.905l2.115-3.152,1.135,1.289V216.1h1.695v-1.863l1.135-1.289,2.115,3.152h1.9l-2.886-4.286,2.788-3.11H529.8l-3.082,3.628V208.7h-1.695v3.628l-3.068-3.628h-1.975l2.788,3.11Zm16.439,0.168a3.739,3.739,0,0,0,3.025-1.387L538.337,214a2.688,2.688,0,0,1-2,.882A2.064,2.064,0,0,1,534.205,213h5.434c0.014-.084.028-0.364,0.028-0.476,0-2.129-1.19-3.978-3.543-3.978A3.863,3.863,0,0,0,536.306,216.267Zm-2.115-4.384a2,2,0,0,1,1.919-1.947,1.92,1.92,0,0,1,1.877,1.947h-3.8Zm7.461,6.457h1.695v-3.39a3.011,3.011,0,0,0,2.507,1.3,3.876,3.876,0,0,0,0-7.7,2.952,2.952,0,0,0-2.507,1.387V208.7h-1.695v9.637Zm3.81-3.558a2.393,2.393,0,0,1,0-4.762A2.4,2.4,0,0,1,545.462,214.782Zm9.267,1.485a3.74,3.74,0,0,0,3.026-1.387l-1.022-1.008a2.605,2.605,0,0,1-1.919.924,2.25,2.25,0,0,1-2.214-2.381v-0.028a2.22,2.22,0,0,1,2.129-2.353,2.492,2.492,0,0,1,1.92.924l1.05-1.135a3.7,3.7,0,0,0-2.956-1.274,3.814,3.814,0,0,0-3.838,3.866v0.028A3.776,3.776,0,0,0,554.729,216.267Zm12.782,0a3.86,3.86,0,1,0-3.922-3.852A3.867,3.867,0,0,0,567.511,216.267Zm0.028-1.471a2.292,2.292,0,0,1-2.255-2.381,2.228,2.228,0,0,1,2.227-2.381,2.285,2.285,0,0,1,2.269,2.381A2.238,2.238,0,0,1,567.539,214.8Zm5.934,1.3h1.7V210.16h3.208V216.1h1.7v-7.4h-6.6v7.4Zm9,2.241h1.695v-3.39a3.012,3.012,0,0,0,2.507,1.3,3.876,3.876,0,0,0,0-7.7,2.953,2.953,0,0,0-2.507,1.387V208.7h-1.695v9.637Zm3.81-3.558a2.393,2.393,0,0,1,0-4.762A2.4,2.4,0,0,1,586.285,214.782Zm9.24,1.485a3.737,3.737,0,0,0,3.025-1.387L597.556,214a2.687,2.687,0,0,1-2,.882A2.064,2.064,0,0,1,593.424,213h5.435c0.014-.084.028-0.364,0.028-0.476,0-2.129-1.191-3.978-3.544-3.978A3.863,3.863,0,0,0,595.525,216.267Zm-2.115-4.384a2,2,0,0,1,1.919-1.947,1.92,1.92,0,0,1,1.877,1.947h-3.8Zm6.606,5.995h1.415L601.6,216.1h5.183v1.779H608.2l0.224-3.236H607.37V208.7h-5.729v0.91a11.645,11.645,0,0,1-.826,5.029h-0.8v3.236Zm2.536-3.236a8.384,8.384,0,0,0,.686-3.5v-0.98h2.437v4.482h-3.123Zm10.949,1.625a3.739,3.739,0,0,0,3.025-1.387L615.532,214a2.688,2.688,0,0,1-2,.882A2.064,2.064,0,0,1,611.4,213h5.434c0.014-.084.028-0.364,0.028-0.476,0-2.129-1.19-3.978-3.543-3.978A3.863,3.863,0,0,0,613.5,216.267Zm-2.115-4.384a2,2,0,0,1,1.919-1.947,1.92,1.92,0,0,1,1.877,1.947h-3.8Zm7.405,4.3c1.639,0,2.647-.658,2.647-6.023h2.311V216.1h1.695v-7.4h-5.589c0,5.631-.588,6.051-1.443,6.051a2.92,2.92,0,0,1-.49-0.056l-0.126,1.387A7.709,7.709,0,0,0,618.791,216.183Zm8.385-.084h1.989l1.751-2.494h1.513V216.1h1.7v-7.4h-3.712c-1.863,0-2.914.98-2.914,2.409a2.233,2.233,0,0,0,1.723,2.213Zm3.474-3.768a1.234,1.234,0,0,1-1.457-1.135,1.206,1.206,0,0,1,1.443-1.12h1.793v2.255H630.65Zm5.822,3.852c1.639,0,2.648-.658,2.648-6.023h2.311V216.1h1.695v-7.4h-5.589c0,5.631-.588,6.051-1.443,6.051a2.92,2.92,0,0,1-.49-0.056l-0.126,1.387A7.711,7.711,0,0,0,636.472,216.183Zm15.121-.084H653.3V210.16h2.381V208.7h-6.472v1.457h2.382V216.1Zm8.821,0.168a3.737,3.737,0,0,0,3.025-1.387L662.445,214a2.687,2.687,0,0,1-2,.882A2.064,2.064,0,0,1,658.313,213h5.435c0.014-.084.028-0.364,0.028-0.476,0-2.129-1.191-3.978-3.544-3.978A3.863,3.863,0,0,0,660.414,216.267Zm-2.115-4.384a2,2,0,0,1,1.919-1.947,1.92,1.92,0,0,1,1.877,1.947h-3.8Zm7.461,6.457h1.7v-3.39a3.011,3.011,0,0,0,2.507,1.3,3.876,3.876,0,0,0,0-7.7,2.952,2.952,0,0,0-2.507,1.387V208.7h-1.7v9.637Zm3.81-3.558a2.393,2.393,0,0,1,0-4.762A2.4,2.4,0,0,1,669.57,214.782Zm12.055,1.317v-4.385c0-1.975-1.064-3.123-3.25-3.123a6.343,6.343,0,0,0-2.815.616l0.462,1.359a5.151,5.151,0,0,1,2.115-.462,1.542,1.542,0,0,1,1.821,1.582v0.141a6.2,6.2,0,0,0-2.045-.309c-1.723,0-3,.785-3,2.424a2.372,2.372,0,0,0,2.634,2.311,2.987,2.987,0,0,0,2.395-1.065V216.1h1.681Zm-1.639-2.676a1.727,1.727,0,0,1-1.961,1.555,1.226,1.226,0,0,1-1.429-1.092c0-.743.631-1.177,1.7-1.177a4.841,4.841,0,0,1,1.695.294v0.42Zm3.932,2.676h1.694V210.16h3.208V216.1h1.695v-7.4h-6.6v7.4Zm9,0h1.6l3.516-4.931V216.1h1.639v-7.4h-1.6q-1.764,2.48-3.5,4.959V208.7h-1.653v7.4Zm15.726,0.168a3.855,3.855,0,0,0,.028-7.7,3.62,3.62,0,0,0-3.642,3.137h-1.275v-3h-1.681v7.4h1.681v-3h1.275A3.562,3.562,0,0,0,708.645,216.267Zm0.028-1.471a2.127,2.127,0,0,1-2.017-2.381c0-1.317.672-2.381,1.989-2.381a2.137,2.137,0,0,1,2.031,2.381A2.093,2.093,0,0,1,708.673,214.8Zm10.16,1.3h1.681V214.32l1.2-1.275,2.242,3.054h2l-3.11-4.286,2.872-3.11h-1.989l-3.222,3.544V208.7h-1.681v7.4Zm14.507,0v-4.385c0-1.975-1.064-3.123-3.25-3.123a6.343,6.343,0,0,0-2.815.616l0.462,1.359a5.155,5.155,0,0,1,2.115-.462,1.542,1.542,0,0,1,1.821,1.582v0.141a6.2,6.2,0,0,0-2.045-.309c-1.723,0-3,.785-3,2.424a2.372,2.372,0,0,0,2.633,2.311,2.986,2.986,0,0,0,2.395-1.065V216.1h1.681Zm-1.639-2.676a1.727,1.727,0,0,1-1.961,1.555,1.225,1.225,0,0,1-1.428-1.092c0-.743.63-1.177,1.694-1.177a4.841,4.841,0,0,1,1.7.294v0.42Zm3.932,2.676h1.681V214.32l1.2-1.275,2.241,3.054h2l-3.11-4.286,2.871-3.11h-1.989l-3.221,3.544V208.7h-1.681v7.4Zm8.175,2.031a2.039,2.039,0,0,0,2.157-2.325V214.18H744.1V216.1h0.715c0,0.056.014,0.1,0.014,0.154a1.2,1.2,0,0,1-1.205,1.163Zm-247.7,19.137a3.86,3.86,0,1,0-3.922-3.852A3.867,3.867,0,0,0,496.112,237.267Zm0.028-1.471a2.291,2.291,0,0,1-2.255-2.381,2.227,2.227,0,0,1,2.227-2.381,2.286,2.286,0,0,1,2.269,2.381A2.238,2.238,0,0,1,496.14,235.8Zm5.934,1.3h3.838c1.681,0,2.731-.757,2.731-2a1.822,1.822,0,0,0-1.526-1.849,1.762,1.762,0,0,0,1.19-1.7c0-1.135-.966-1.849-2.437-1.849h-3.8v7.4Zm1.667-1.345v-1.849h1.835c0.91,0,1.344.364,1.344,0.9a1.036,1.036,0,0,1-1.26.952h-1.919Zm0-3v-1.75h1.765a0.885,0.885,0,0,1,1.078.84,0.947,0.947,0,0,1-1.106.91h-1.737ZM514,237.267a3.739,3.739,0,0,0,3.025-1.387L516.035,235a2.688,2.688,0,0,1-2,.882A2.065,2.065,0,0,1,511.9,234h5.435c0.014-.084.028-0.364,0.028-0.476,0-2.129-1.19-3.978-3.544-3.978A3.863,3.863,0,0,0,514,237.267Zm-2.116-4.384a2,2,0,0,1,1.919-1.947,1.92,1.92,0,0,1,1.877,1.947h-3.8Zm6.607,5.995h1.415l0.168-1.779h5.183v1.779h1.414l0.225-3.236h-1.051V229.7H520.12v0.91a11.645,11.645,0,0,1-.826,5.029h-0.8v3.236Zm2.535-3.236a8.368,8.368,0,0,0,.687-3.5v-0.98h2.437v4.482H521.03Zm10.949,1.625a3.739,3.739,0,0,0,3.026-1.387l-1-.882a2.685,2.685,0,0,1-2,.882A2.065,2.065,0,0,1,529.878,234h5.435c0.014-.084.028-0.364,0.028-0.476,0-2.129-1.19-3.978-3.544-3.978A3.863,3.863,0,0,0,531.979,237.267Zm-2.115-4.384a2,2,0,0,1,1.919-1.947,1.92,1.92,0,0,1,1.877,1.947h-3.8Zm7.461,4.216h1.695v-2.984h3.264V237.1h1.7v-7.4h-1.7v3H539.02v-3h-1.695v7.4Zm13.555,0h1.7v-7.4h-1.7v3.264a3.776,3.776,0,0,1-1.807.49,1.226,1.226,0,0,1-1.219-1.289V229.7h-1.7v2.871a2.255,2.255,0,0,0,2.522,2.326,5.292,5.292,0,0,0,2.2-.561v2.76Zm7.489,0.168a3.741,3.741,0,0,0,3.026-1.387l-1-.882a2.685,2.685,0,0,1-2,.882A2.064,2.064,0,0,1,556.268,234H561.7c0.014-.084.028-0.364,0.028-0.476,0-2.129-1.191-3.978-3.544-3.978A3.863,3.863,0,0,0,558.369,237.267Zm-2.115-4.384a2,2,0,0,1,1.919-1.947,1.92,1.92,0,0,1,1.877,1.947h-3.8Zm10.879,4.384a3.742,3.742,0,0,0,3.026-1.387l-1.023-1.008a2.6,2.6,0,0,1-1.919.924A2.249,2.249,0,0,1,565,233.415v-0.028a2.219,2.219,0,0,1,2.129-2.353,2.49,2.49,0,0,1,1.919.924l1.05-1.135a3.693,3.693,0,0,0-2.955-1.274,3.814,3.814,0,0,0-3.838,3.866v0.028A3.776,3.776,0,0,0,567.133,237.267Zm4.786-.168H573.6V235.32l1.2-1.275,2.242,3.054h2l-3.11-4.286,2.872-3.11h-1.989l-3.222,3.544V229.7h-1.681v7.4Zm14.507,0v-4.385c0-1.975-1.064-3.123-3.249-3.123a6.345,6.345,0,0,0-2.816.616l0.462,1.359a5.155,5.155,0,0,1,2.115-.462,1.542,1.542,0,0,1,1.821,1.582v0.141a6.2,6.2,0,0,0-2.045-.309c-1.723,0-3,.785-3,2.424a2.372,2.372,0,0,0,2.633,2.311,2.986,2.986,0,0,0,2.395-1.065V237.1h1.681Zm-1.639-2.676a1.727,1.727,0,0,1-1.961,1.555,1.225,1.225,0,0,1-1.428-1.092c0-.743.63-1.177,1.694-1.177a4.841,4.841,0,0,1,1.7.294v0.42Zm3.259,2.676h1.989l1.751-2.494H593.3V237.1h1.7v-7.4h-3.712c-1.863,0-2.913.98-2.913,2.409a2.232,2.232,0,0,0,1.722,2.213Zm3.474-3.768a1.235,1.235,0,0,1-1.457-1.135,1.207,1.207,0,0,1,1.443-1.12H593.3v2.255H591.52Zm11.941,3.768h1.709V231.16h2.381V229.7H601.08v1.457h2.381V237.1Zm8.821,0.168a3.739,3.739,0,0,0,3.026-1.387l-1-.882a2.685,2.685,0,0,1-2,.882A2.065,2.065,0,0,1,610.181,234h5.435c0.014-.084.028-0.364,0.028-0.476,0-2.129-1.191-3.978-3.544-3.978A3.863,3.863,0,0,0,612.282,237.267Zm-2.115-4.384a2,2,0,0,1,1.919-1.947,1.92,1.92,0,0,1,1.877,1.947h-3.8Zm7.461,6.457h1.695v-3.39a3.013,3.013,0,0,0,2.508,1.3,3.876,3.876,0,0,0,0-7.7,2.955,2.955,0,0,0-2.508,1.387V229.7h-1.695v9.637Zm3.81-3.558a2.393,2.393,0,0,1,0-4.762A2.4,2.4,0,0,1,621.438,235.782Zm12.056,1.317v-4.385c0-1.975-1.065-3.123-3.25-3.123a6.348,6.348,0,0,0-2.816.616l0.463,1.359a5.147,5.147,0,0,1,2.115-.462,1.543,1.543,0,0,1,1.821,1.582v0.141a6.2,6.2,0,0,0-2.045-.309c-1.723,0-3,.785-3,2.424a2.372,2.372,0,0,0,2.633,2.311,2.989,2.989,0,0,0,2.4-1.065V237.1h1.681Zm-1.639-2.676a1.728,1.728,0,0,1-1.961,1.555,1.225,1.225,0,0,1-1.429-1.092c0-.743.63-1.177,1.695-1.177a4.849,4.849,0,0,1,1.7.294v0.42Zm3.931,2.676h1.7V231.16h3.208V237.1h1.7v-7.4h-6.6v7.4Zm9,0h1.6l3.516-4.931V237.1h1.639v-7.4h-1.6q-1.765,2.48-3.5,4.959V229.7h-1.653v7.4Zm8.483,0h1.989l1.751-2.494h1.513V237.1h1.7v-7.4h-3.712c-1.863,0-2.913.98-2.913,2.409a2.232,2.232,0,0,0,1.722,2.213Zm3.474-3.768a1.235,1.235,0,0,1-1.457-1.135,1.207,1.207,0,0,1,1.443-1.12h1.793v2.255h-1.779ZM667.1,237.1h3.838c1.681,0,2.732-.757,2.732-2a1.822,1.822,0,0,0-1.527-1.849,1.763,1.763,0,0,0,1.191-1.7c0-1.135-.967-1.849-2.438-1.849h-3.8v7.4Zm1.667-1.345v-1.849h1.835c0.911,0,1.345.364,1.345,0.9a1.037,1.037,0,0,1-1.261.952H668.77Zm0-3v-1.75h1.765a0.886,0.886,0,0,1,1.079.84,0.947,0.947,0,0,1-1.107.91H668.77Zm10.389,4.511a3.86,3.86,0,1,0-3.922-3.852A3.867,3.867,0,0,0,679.159,237.267Zm0.028-1.471a2.291,2.291,0,0,1-2.255-2.381,2.227,2.227,0,0,1,2.227-2.381,2.285,2.285,0,0,1,2.269,2.381A2.238,2.238,0,0,1,679.187,235.8Zm8.176,1.471c1.793,0,2.969-1.009,2.969-2.255a1.8,1.8,0,0,0-1.344-1.793,1.743,1.743,0,0,0,1.162-1.681c0-1.149-1.134-1.989-2.759-1.989a4.554,4.554,0,0,0-3.012,1.064l0.757,1.065a3.221,3.221,0,0,1,2.1-.757,1.037,1.037,0,0,1,1.218.841,1.107,1.107,0,0,1-1.3.966h-0.911v1.219h0.911c0.966,0,1.5.378,1.5,0.925a1.222,1.222,0,0,1-1.4,1.022,3.617,3.617,0,0,1-2.326-.882l-0.8,1.12A4.766,4.766,0,0,0,687.363,237.267Zm5.01-.168h1.653v-4.9l2.311,3.292,2.326-3.32V237.1h1.709v-7.4h-1.681l-2.326,3.432-2.311-3.432h-1.681v7.4Zm13.918,0.168a3.86,3.86,0,1,0-3.922-3.852A3.867,3.867,0,0,0,706.291,237.267Zm0.028-1.471a2.291,2.291,0,0,1-2.255-2.381,2.227,2.227,0,0,1,2.227-2.381,2.285,2.285,0,0,1,2.269,2.381A2.238,2.238,0,0,1,706.319,235.8Zm4.576,1.3h1.9l2.115-3.152,1.134,1.289V237.1h1.7v-1.863l1.135-1.289,2.115,3.152h1.9l-2.885-4.286,2.787-3.11h-1.975l-3.082,3.628V229.7h-1.7v3.628l-3.067-3.628h-1.975l2.787,3.11Zm13.468,0h1.695v-2.984h3.264V237.1h1.7v-7.4h-1.7v3h-3.264v-3h-1.695v7.4Zm15.263,0v-4.385c0-1.975-1.064-3.123-3.249-3.123a6.348,6.348,0,0,0-2.816.616l0.462,1.359a5.156,5.156,0,0,1,2.116-.462,1.543,1.543,0,0,1,1.821,1.582v0.141a6.206,6.206,0,0,0-2.046-.309c-1.723,0-3,.785-3,2.424a2.372,2.372,0,0,0,2.633,2.311,2.989,2.989,0,0,0,2.4-1.065V237.1h1.68Zm-1.638-2.676a1.728,1.728,0,0,1-1.962,1.555,1.225,1.225,0,0,1-1.428-1.092c0-.743.63-1.177,1.7-1.177a4.849,4.849,0,0,1,1.7.294v0.42Zm3.819,2.676h1.863V235.18h-1.863V237.1Z" transform="translate(-421 -169)"/>
  <path id="Сохраняя_традиции" data-name="Сохраняя традиции" class="cls-3" d="M499.887,189.906a7.77,7.77,0,0,0,6.821-3.477l-3.213-2.288a4.206,4.206,0,0,1-3.476,1.87,4.141,4.141,0,0,1,0-8.229,4.142,4.142,0,0,1,3.388,1.782l3.125-2.42a7.451,7.451,0,0,0-6.469-3.257,7.913,7.913,0,0,0-8.119,8.01A7.831,7.831,0,0,0,499.887,189.906Zm14.035-.022a6.236,6.236,0,1,0-6.557-6.227A6.34,6.34,0,0,0,513.922,189.884Zm0.044-3.543a2.58,2.58,0,0,1-2.53-2.684,2.506,2.506,0,0,1,2.486-2.685,2.581,2.581,0,0,1,2.531,2.685A2.506,2.506,0,0,1,513.966,186.341Zm6.049,3.257h4.4l1.87-3.059,1.848,3.059h4.489l-4-6.029,3.916-5.875h-4.423l-1.76,2.926-1.76-2.926h-4.511l3.939,5.9Zm13.464,3.52h4.181v-4.973a4.467,4.467,0,0,0,3.63,1.717c2.817,0,5.259-2.355,5.259-6.227,0-3.851-2.442-6.2-5.281-6.2a4.369,4.369,0,0,0-3.608,1.848v-1.584h-4.181v15.424Zm6.513-6.755a2.733,2.733,0,1,1,2.442-2.75A2.517,2.517,0,0,1,539.992,186.363Zm11.33,3.5a4.486,4.486,0,0,0,3.5-1.5V189.6h4.137v-6.843a4.97,4.97,0,0,0-1.277-3.785,6.115,6.115,0,0,0-4.532-1.452,11.958,11.958,0,0,0-4.819.924l0.858,2.948a8.387,8.387,0,0,1,3.279-.66c1.606,0,2.376.7,2.376,1.937v0.2a9.128,9.128,0,0,0-2.86-.462c-2.795,0-4.665,1.276-4.665,3.74C547.317,188.564,549.055,189.862,551.322,189.862Zm1.5-2.619a1.311,1.311,0,0,1-1.474-1.3c0-.924.7-1.518,1.914-1.518a4.379,4.379,0,0,1,1.628.308v0.55A1.913,1.913,0,0,1,552.818,187.243Zm7.831,2.355h4.181v-4.313h3.432V189.6h4.181v-11.9h-4.181v4.225H564.83v-4.225h-4.181v11.9Zm12.76,0h4.774l2.289-3.433h0.946V189.6h4.2v-11.9H579a5.13,5.13,0,0,0-3.894,1.32,3.745,3.745,0,0,0-1.1,2.839,3.674,3.674,0,0,0,2.2,3.608Zm6.358-6.337c-0.99,0-1.54-.44-1.54-1.188a1.272,1.272,0,0,1,1.54-1.233h1.651v2.421h-1.651Zm6.819,6.337h4.775l2.288-3.433H594.6V189.6h4.2v-11.9h-6.623a5.13,5.13,0,0,0-3.894,1.32,3.742,3.742,0,0,0-1.1,2.839,3.673,3.673,0,0,0,2.2,3.608Zm6.359-6.337c-0.99,0-1.54-.44-1.54-1.188a1.272,1.272,0,0,1,1.54-1.233h1.65v2.421h-1.65Zm15.883,6.337h4.181V181.06h3.476v-3.366H605.352v3.366h3.476V189.6Zm8.558,3.52h4.18v-4.973a4.468,4.468,0,0,0,3.631,1.717c2.816,0,5.258-2.355,5.258-6.227,0-3.851-2.442-6.2-5.28-6.2a4.369,4.369,0,0,0-3.609,1.848v-1.584h-4.18v15.424Zm6.513-6.755a2.733,2.733,0,1,1,2.442-2.75A2.517,2.517,0,0,1,623.9,186.363Zm11.329,3.5a4.486,4.486,0,0,0,3.5-1.5V189.6h4.137v-6.843a4.974,4.974,0,0,0-1.276-3.785,6.116,6.116,0,0,0-4.533-1.452,11.956,11.956,0,0,0-4.818.924l0.858,2.948a8.382,8.382,0,0,1,3.278-.66c1.606,0,2.376.7,2.376,1.937v0.2a9.128,9.128,0,0,0-2.86-.462c-2.794,0-4.665,1.276-4.665,3.74C631.223,188.564,632.962,189.862,635.228,189.862Zm1.5-2.619a1.311,1.311,0,0,1-1.474-1.3c0-.924.7-1.518,1.914-1.518a4.379,4.379,0,0,1,1.628.308v0.55A1.913,1.913,0,0,1,636.724,187.243Zm6.929,4.775h3.741l0.22-2.42h6.227v2.42h3.564l0.4-5.787h-1.386v-8.537H645.81v0.572c0,4.115-.374,6.007-1.057,7.965h-1.1v5.787Zm5.369-5.787a17.813,17.813,0,0,0,.77-5.017v-0.2h2.421v5.215h-3.191Zm9.459,3.367h3.851l3.961-5.963V189.6h4.048v-11.9h-3.85l-3.961,5.963v-5.963h-4.049v11.9Zm22.706,2.42h3.564l0.4-5.787h-1.386v-8.537H679.58v8.537h-3.256v-8.537h-4.181v11.9h9.044v2.42Zm4.64-2.42h3.851l3.96-5.963V189.6h4.049v-11.9h-3.851l-3.96,5.963v-5.963h-4.049v11.9Zm13.662,0h3.851l3.96-5.963V189.6h4.049v-11.9H707.5l-3.96,5.963v-5.963h-4.049v11.9Z" transform="translate(-421 -169)"/>
</svg>
