<svg id="_3_копия_2" data-name="3 копия 2" xmlns="http://www.w3.org/2000/svg" width="324.06" height="70.344" viewBox="0 0 324.06 70.344">
  <defs>
    <style>
      .cls-1 {
        fill: #b8596f;
      }

      .cls-2 {
        fill: #fff;
      }

      .cls-2, .cls-3 {
        fill-rule: evenodd;
      }
    </style>
  </defs>
  <circle id="Эллипс_1" data-name="Эллипс 1" class="cls-1" cx="298.06" cy="26" r="26"/>
  <path class="cls-2" d="M1514.46,316.172a19.1,19.1,0,0,1,.81-2.577,4.334,4.334,0,0,0,2.88,1.135c4.49,0,8.11-6.019,8.11-11a1.593,1.593,0,0,0-1.59-1.583c-5.02,0-11.08,3.6-11.08,8.06a4.131,4.131,0,0,0,.67,2.225,18.294,18.294,0,0,0-.93,2.52c-0.24-.4-0.5-0.778-0.77-1.143a3.091,3.091,0,0,0,.47-1.615c0-3.242-4.36-5.852-7.96-5.852a1.328,1.328,0,0,0-1.33,1.318c0,3.583,2.63,7.911,5.89,7.911a3.166,3.166,0,0,0,1.97-.7c0.3,0.42.58,0.859,0.85,1.329A9.854,9.854,0,1,0,1514.46,316.172Zm10.21-12.628a0.181,0.181,0,0,1,.18.184c0,4.323-3.09,9.6-6.7,9.6a2.967,2.967,0,0,1-2.17-.97c-0.03-.03-0.05-0.063-0.08-0.094,1.63-3.047,4.08-4.686,7.12-5.984a0.7,0.7,0,0,0,.37-0.918,0.712,0.712,0,0,0-.93-0.366,14.868,14.868,0,0,0-7.37,5.871,2.453,2.453,0,0,1-.09-0.665C1515,306.617,1520.31,303.544,1524.67,303.544Zm-13.09,9.034a19.827,19.827,0,0,0-3.93-3.324,0.71,0.71,0,0,0-.98.194,0.7,0.7,0,0,0,.2.97,17.974,17.974,0,0,1,3.88,3.348,1.811,1.811,0,0,1-1.12.4c-2.35,0-4.44-3.574-4.48-6.431,2.87,0.039,6.47,2.119,6.47,4.453A1.643,1.643,0,0,1,1511.58,312.578Zm-4.1,16.162a2.552,2.552,0,0,0-.56,1.522v0.779a8.339,8.339,0,0,1-1.75-4.62,2.175,2.175,0,0,1,.65.815,3,3,0,0,0,.51.754,2.088,2.088,0,0,0,1.31.513C1507.6,328.569,1507.55,328.646,1507.48,328.74Zm14.56-2.824a8.448,8.448,0,0,1-13.71,6.55v-2.2a1.208,1.208,0,0,1,.31-0.725,2.077,2.077,0,0,0,.49-1.251,1.236,1.236,0,0,0-1.33-1.173,1.072,1.072,0,0,1-.47-0.112,2.388,2.388,0,0,1-.28-0.44,2.963,2.963,0,0,0-1.84-1.638,8.435,8.435,0,0,1,8.38-7.4c0.29,0,.58.015,0.86,0.043a2.015,2.015,0,0,0-.56.344,0.71,0.71,0,0,0-.21.515,0.72,0.72,0,0,0,.18.44c-0.05.029-.11,0.063-0.19,0.1a3.208,3.208,0,0,0-1.73,1.977,1.272,1.272,0,0,0,.36,1.117c0.01,0.007.01,0.015,0.02,0.022a3.091,3.091,0,0,0-.82.57,2.473,2.473,0,0,0-.62,2.167c0.01,0.108.02,0.209,0.02,0.3a1.674,1.674,0,0,0,1.9,1.489,6.55,6.55,0,0,1,2.08.281,2.788,2.788,0,0,0,.26.919,1.1,1.1,0,0,1,.14.472l-0.05.134a1.541,1.541,0,0,0-.35,1.052,3.635,3.635,0,0,0,.97,2.048,0.724,0.724,0,0,0,.53.231,0.672,0.672,0,0,0,.17-0.022c0.26-.065,2.52-0.686,2.52-2.257a0.476,0.476,0,0,1,.22-0.477,1.348,1.348,0,0,0,.57-1.1,4.925,4.925,0,0,1,1.02-1.514,0.694,0.694,0,0,0-.09-1.021,4.882,4.882,0,0,1-.69-0.653c0.04,0,.07,0,0.11,0a2.879,2.879,0,0,0,1.54-.931A8.373,8.373,0,0,1,1522.04,325.916Zm-7.03-2.737a2.761,2.761,0,0,0,1.37.275l0.45,0a8.574,8.574,0,0,0,1.16-.032,1.687,1.687,0,0,0,.11.748,5.182,5.182,0,0,0,1.27,1.812,3.538,3.538,0,0,0-.89,1.853,0.7,0.7,0,0,1-.11.1,1.824,1.824,0,0,0-.71,1.533,1.625,1.625,0,0,1-1.03.763,1.8,1.8,0,0,1-.35-0.763l0.06-.2a1.426,1.426,0,0,0,.34-0.988,2.407,2.407,0,0,0-.25-1.031,1.22,1.22,0,0,1-.15-0.55c0-1.231-1.89-1.49-3.48-1.49a1.413,1.413,0,0,1-.49-0.091,3.277,3.277,0,0,0-.03-0.426,1.164,1.164,0,0,1,.22-1.055,2.875,2.875,0,0,1,1.89-.586A1.181,1.181,0,0,1,1515.01,323.179Zm-0.32-1.509a2.244,2.244,0,0,1,.89-0.192,4.359,4.359,0,0,1,2.51.5,3.779,3.779,0,0,1-1.24.088l-0.47-.006a1.439,1.439,0,0,1-.77-0.14A2.378,2.378,0,0,0,1514.69,321.67Zm5.53,1.573a2.8,2.8,0,0,0-.94-0.533,1.519,1.519,0,0,0,.19-0.746c0-1.2-1.42-1.884-3.89-1.884a3.879,3.879,0,0,0-1.72.43,2.446,2.446,0,0,1,.45-0.294,1.725,1.725,0,0,0,1.08-1.179,0.911,0.911,0,0,0-.01-0.331,11.8,11.8,0,0,1,1.96-.3,8.4,8.4,0,0,1,3.86,3.9A5.912,5.912,0,0,1,1520.22,323.243Z" transform="translate(-1216.94 -293)"/>
  <path id="Роджерс_определял_терапию_как_оведенческая_терапия_возможна._" data-name="Роджерс определял терапию как,  оведенческая терапия возможна. " class="cls-3" d="M1216.93,340.1h1.72v-3.152h1.95c2.15,0,3.92-1.148,3.92-3.348,0-2-1.44-3.305-3.73-3.305h-3.86V340.1Zm1.72-4.707v-3.53h2c1.29,0,2.12.6,2.12,1.751a1.851,1.851,0,0,1-2.12,1.779h-2Zm11.23,4.875a3.86,3.86,0,1,0-3.92-3.852A3.826,3.826,0,0,0,1229.88,340.267Zm0.03-1.471a2.293,2.293,0,0,1-2.26-2.381,2.229,2.229,0,0,1,2.23-2.381,2.287,2.287,0,0,1,2.27,2.381A2.239,2.239,0,0,1,1229.91,338.8Zm4.94,3.082h1.41l0.17-1.779h5.18v1.779h1.42l0.22-3.236h-1.05V332.7h-5.73v0.91a11.745,11.745,0,0,1-.82,5.029h-0.8v3.236Zm2.53-3.236a8.289,8.289,0,0,0,.69-3.5v-0.98h2.44v4.482h-3.13ZM1244,340.1h1.91l2.11-3.152,1.14,1.289V340.1h1.69v-1.863l1.14-1.289,2.11,3.152h1.91l-2.89-4.286,2.79-3.11h-1.98l-3.08,3.628V332.7h-1.69v3.628l-3.07-3.628h-1.97l2.78,3.11Zm16.44,0.168a3.746,3.746,0,0,0,3.03-1.387l-1-.882a2.677,2.677,0,0,1-2,.882,2.065,2.065,0,0,1-2.13-1.877h5.44c0.01-.084.02-0.364,0.02-0.476,0-2.129-1.19-3.978-3.54-3.978A3.864,3.864,0,0,0,1260.44,340.267Zm-2.11-4.384a2,2,0,0,1,1.92-1.947,1.913,1.913,0,0,1,1.87,1.947h-3.79Zm7.46,6.457h1.69v-3.39a3.018,3.018,0,0,0,2.51,1.3,3.875,3.875,0,0,0,0-7.7,2.964,2.964,0,0,0-2.51,1.387V332.7h-1.69v9.637Zm3.81-3.558a2.392,2.392,0,0,1,0-4.762A2.4,2.4,0,0,1,1269.6,338.782Zm9.27,1.485a3.735,3.735,0,0,0,3.02-1.387l-1.02-1.008a2.6,2.6,0,0,1-1.92.924,2.249,2.249,0,0,1-2.21-2.381v-0.028a2.215,2.215,0,0,1,2.13-2.353,2.465,2.465,0,0,1,1.91.924l1.05-1.135a3.675,3.675,0,0,0-2.95-1.274,3.818,3.818,0,0,0-3.84,3.866v0.028A3.781,3.781,0,0,0,1278.87,340.267Zm12.78,0a3.86,3.86,0,1,0-3.93-3.852A3.865,3.865,0,0,0,1291.65,340.267Zm0.02-1.471a2.291,2.291,0,0,1-2.25-2.381,2.229,2.229,0,0,1,2.23-2.381,2.287,2.287,0,0,1,2.27,2.381A2.241,2.241,0,0,1,1291.67,338.8Zm5.94,1.3h1.69V334.16h3.21V340.1h1.7v-7.4h-6.6v7.4Zm9,2.241h1.7v-3.39a2.985,2.985,0,0,0,2.5,1.3,3.875,3.875,0,0,0,0-7.7,2.933,2.933,0,0,0-2.5,1.387V332.7h-1.7v9.637Zm3.81-3.558a2.392,2.392,0,0,1,0-4.762A2.4,2.4,0,0,1,1310.42,338.782Zm9.24,1.485a3.746,3.746,0,0,0,3.03-1.387l-1-.882a2.677,2.677,0,0,1-2,.882,2.065,2.065,0,0,1-2.13-1.877h5.43a3.489,3.489,0,0,0,.03-0.476c0-2.129-1.19-3.978-3.54-3.978A3.863,3.863,0,0,0,1319.66,340.267Zm-2.11-4.384a2,2,0,0,1,1.91-1.947,1.915,1.915,0,0,1,1.88,1.947h-3.79Zm6.6,6h1.42l0.17-1.779h5.18v1.779h1.41l0.23-3.236h-1.05V332.7h-5.73v0.91a11.58,11.58,0,0,1-.83,5.029h-0.8v3.236Zm2.54-3.236a8.451,8.451,0,0,0,.68-3.5v-0.98h2.44v4.482h-3.12Zm10.95,1.625a3.726,3.726,0,0,0,3.02-1.387l-0.99-.882a2.7,2.7,0,0,1-2.01.882,2.056,2.056,0,0,1-2.12-1.877h5.43c0.01-.084.03-0.364,0.03-0.476,0-2.129-1.19-3.978-3.55-3.978A3.863,3.863,0,0,0,1337.64,340.267Zm-2.12-4.384a2,2,0,0,1,1.92-1.947,1.921,1.921,0,0,1,1.88,1.947h-3.8Zm7.41,4.3c1.64,0,2.64-.658,2.64-6.023h2.32V340.1h1.69v-7.4h-5.59c0,5.631-.59,6.051-1.44,6.051a2.92,2.92,0,0,1-.49-0.056l-0.13,1.387A7.7,7.7,0,0,0,1342.93,340.183Zm8.38-.084h1.99l1.75-2.494h1.51V340.1h1.7v-7.4h-3.71c-1.87,0-2.92.98-2.92,2.409a2.237,2.237,0,0,0,1.73,2.213Zm3.48-3.768a1.237,1.237,0,0,1-1.46-1.135,1.207,1.207,0,0,1,1.44-1.12h1.79v2.255h-1.77Zm5.82,3.852c1.64,0,2.65-.658,2.65-6.023h2.31V340.1h1.69v-7.4h-5.59c0,5.631-.59,6.051-1.44,6.051a2.92,2.92,0,0,1-.49-0.056l-0.13,1.387A7.875,7.875,0,0,0,1360.61,340.183Zm15.12-.084h1.71V334.16h2.38V332.7h-6.47v1.457h2.38V340.1Zm8.82,0.168a3.76,3.76,0,0,0,3.03-1.387l-1-.882a2.693,2.693,0,0,1-2,.882,2.059,2.059,0,0,1-2.13-1.877h5.43a3.489,3.489,0,0,0,.03-0.476c0-2.129-1.19-3.978-3.54-3.978A3.863,3.863,0,0,0,1384.55,340.267Zm-2.12-4.384a2.011,2.011,0,0,1,1.92-1.947,1.921,1.921,0,0,1,1.88,1.947h-3.8Zm7.47,6.457h1.69v-3.39a3.018,3.018,0,0,0,2.51,1.3,3.877,3.877,0,0,0,0-7.7,2.964,2.964,0,0,0-2.51,1.387V332.7h-1.69v9.637Zm3.81-3.558a2.392,2.392,0,0,1,0-4.762A2.4,2.4,0,0,1,1393.71,338.782Zm12.05,1.317v-4.385c0-1.975-1.06-3.123-3.25-3.123a6.327,6.327,0,0,0-2.81.616l0.46,1.359a5.142,5.142,0,0,1,2.11-.462,1.54,1.54,0,0,1,1.82,1.582v0.141a6.132,6.132,0,0,0-2.04-.309c-1.72,0-3,.785-3,2.424a2.37,2.37,0,0,0,2.63,2.311,2.977,2.977,0,0,0,2.4-1.065V340.1h1.68Zm-1.64-2.676a1.727,1.727,0,0,1-1.96,1.555,1.226,1.226,0,0,1-1.43-1.092c0-.743.63-1.177,1.7-1.177a4.789,4.789,0,0,1,1.69.294v0.42Zm3.93,2.676h1.7V334.16h3.21V340.1h1.69v-7.4h-6.6v7.4Zm9.01,0h1.59l3.52-4.931V340.1h1.64v-7.4h-1.6c-1.18,1.653-2.34,3.306-3.5,4.959V332.7h-1.65v7.4Zm15.72,0.168a3.855,3.855,0,0,0,.03-7.7,3.612,3.612,0,0,0-3.64,3.137h-1.28v-3h-1.68v7.4h1.68v-3h1.28A3.557,3.557,0,0,0,1432.78,340.267Zm0.03-1.471a2.126,2.126,0,0,1-2.02-2.381c0-1.317.67-2.381,1.99-2.381a2.133,2.133,0,0,1,2.03,2.381C1434.81,337.718,1434.13,338.8,1432.81,338.8Zm10.16,1.3h1.68V338.32l1.2-1.275,2.25,3.054h2l-3.11-4.286,2.87-3.11h-1.99l-3.22,3.544V332.7h-1.68v7.4Zm14.51,0v-4.385c0-1.975-1.07-3.123-3.25-3.123a6.34,6.34,0,0,0-2.82.616l0.46,1.359a5.189,5.189,0,0,1,2.12-.462,1.545,1.545,0,0,1,1.82,1.582v0.141a6.241,6.241,0,0,0-2.05-.309c-1.72,0-2.99.785-2.99,2.424a2.37,2.37,0,0,0,2.63,2.311,3.007,3.007,0,0,0,2.4-1.065V340.1h1.68Zm-1.64-2.676a1.727,1.727,0,0,1-1.96,1.555,1.226,1.226,0,0,1-1.43-1.092c0-.743.63-1.177,1.69-1.177a4.893,4.893,0,0,1,1.7.294v0.42Zm3.93,2.676h1.68V338.32l1.2-1.275,2.25,3.054h2l-3.11-4.286,2.87-3.11h-1.99l-3.22,3.544V332.7h-1.68v7.4Zm8.17,2.031a2.039,2.039,0,0,0,2.16-2.325V338.18h-1.86V340.1h0.71c0,0.056.02,0.1,0.02,0.154a1.206,1.206,0,0,1-1.21,1.163Zm-245.4,19.137a3.86,3.86,0,1,0-3.92-3.852A3.868,3.868,0,0,0,1222.54,361.267Zm0.03-1.471a2.285,2.285,0,0,1-2.25-2.381,2.221,2.221,0,0,1,2.22-2.381,2.287,2.287,0,0,1,2.27,2.381A2.239,2.239,0,0,1,1222.57,359.8Zm5.94,1.3h3.83c1.68,0,2.73-.757,2.73-2a1.822,1.822,0,0,0-1.52-1.849,1.762,1.762,0,0,0,1.19-1.695c0-1.135-.97-1.849-2.44-1.849h-3.79v7.4Zm1.66-1.345v-1.849h1.84c0.91,0,1.34.364,1.34,0.9a1.034,1.034,0,0,1-1.26.952h-1.92Zm0-3v-1.75h1.77a0.89,0.89,0,0,1,1.08.84,0.952,0.952,0,0,1-1.11.91h-1.74Zm10.27,4.511a3.74,3.74,0,0,0,3.02-1.387l-0.99-.882a2.7,2.7,0,0,1-2.01.882,2.072,2.072,0,0,1-2.13-1.877h5.44c0.01-.084.03-0.364,0.03-0.476,0-2.129-1.19-3.978-3.55-3.978A3.863,3.863,0,0,0,1240.44,361.267Zm-2.12-4.384a2,2,0,0,1,1.92-1.947,1.928,1.928,0,0,1,1.88,1.947h-3.8Zm6.61,6h1.41l0.17-1.779h5.18v1.779h1.42l0.22-3.236h-1.05V353.7h-5.73v0.91a11.745,11.745,0,0,1-.82,5.029h-0.8v3.236Zm2.53-3.236a8.289,8.289,0,0,0,.69-3.5v-0.98h2.44v4.482h-3.13Zm10.95,1.625a3.746,3.746,0,0,0,3.03-1.387l-1-.882a2.677,2.677,0,0,1-2,.882,2.065,2.065,0,0,1-2.13-1.877h5.43a3.489,3.489,0,0,0,.03-0.476c0-2.129-1.19-3.978-3.54-3.978A3.863,3.863,0,0,0,1258.41,361.267Zm-2.11-4.384a2,2,0,0,1,1.91-1.947,1.915,1.915,0,0,1,1.88,1.947h-3.79Zm7.46,4.216h1.69v-2.984h3.27V361.1h1.69v-7.4h-1.69v3h-3.27v-3h-1.69v7.4Zm13.55,0h1.7v-7.4h-1.7v3.264a3.779,3.779,0,0,1-1.81.49,1.223,1.223,0,0,1-1.21-1.289V353.7h-1.7v2.871a2.254,2.254,0,0,0,2.52,2.326,5.293,5.293,0,0,0,2.2-.561v2.76Zm7.49,0.168a3.746,3.746,0,0,0,3.03-1.387l-1-.882a2.677,2.677,0,0,1-2,.882A2.065,2.065,0,0,1,1282.7,358h5.43a3.489,3.489,0,0,0,.03-0.476c0-2.129-1.19-3.978-3.54-3.978A3.863,3.863,0,0,0,1284.8,361.267Zm-2.11-4.384a2,2,0,0,1,1.91-1.947,1.915,1.915,0,0,1,1.88,1.947h-3.79Zm10.87,4.384a3.742,3.742,0,0,0,3.03-1.387l-1.02-1.008a2.6,2.6,0,0,1-1.92.924,2.249,2.249,0,0,1-2.21-2.381v-0.028a2.214,2.214,0,0,1,2.12-2.353,2.47,2.47,0,0,1,1.92.924l1.05-1.135a3.675,3.675,0,0,0-2.95-1.274,3.818,3.818,0,0,0-3.84,3.866v0.028A3.778,3.778,0,0,0,1293.56,361.267Zm4.79-.168h1.68V359.32l1.21-1.275,2.24,3.054h2l-3.11-4.286,2.87-3.11h-1.99l-3.22,3.544V353.7h-1.68v7.4Zm14.51,0v-4.385c0-1.975-1.07-3.123-3.25-3.123a6.373,6.373,0,0,0-2.82.616l0.46,1.359a5.189,5.189,0,0,1,2.12-.462,1.54,1.54,0,0,1,1.82,1.582v0.141a6.176,6.176,0,0,0-2.04-.309c-1.73,0-3,.785-3,2.424a2.37,2.37,0,0,0,2.63,2.311,3.007,3.007,0,0,0,2.4-1.065V361.1h1.68Zm-1.64-2.676a1.727,1.727,0,0,1-1.96,1.555,1.226,1.226,0,0,1-1.43-1.092c0-.743.63-1.177,1.69-1.177a4.893,4.893,0,0,1,1.7.294v0.42Zm3.26,2.676h1.99l1.75-2.494h1.51V361.1h1.7v-7.4h-3.72c-1.86,0-2.91.98-2.91,2.409a2.228,2.228,0,0,0,1.72,2.213Zm3.47-3.768a1.228,1.228,0,0,1-1.45-1.135,1.2,1.2,0,0,1,1.44-1.12h1.79v2.255h-1.78Zm11.94,3.768h1.71V355.16h2.38V353.7h-6.47v1.457h2.38V361.1Zm8.82,0.168a3.746,3.746,0,0,0,3.03-1.387l-0.99-.882a2.7,2.7,0,0,1-2.01.882,2.065,2.065,0,0,1-2.13-1.877h5.44c0.01-.084.03-0.364,0.03-0.476,0-2.129-1.19-3.978-3.55-3.978A3.864,3.864,0,0,0,1338.71,361.267Zm-2.11-4.384a2,2,0,0,1,1.92-1.947,1.913,1.913,0,0,1,1.87,1.947h-3.79Zm7.46,6.457h1.69v-3.39a3.018,3.018,0,0,0,2.51,1.3,3.875,3.875,0,0,0,0-7.7,2.964,2.964,0,0,0-2.51,1.387V353.7h-1.69v9.637Zm3.81-3.558a2.392,2.392,0,0,1,0-4.762A2.4,2.4,0,0,1,1347.87,359.782Zm12.06,1.317v-4.385c0-1.975-1.07-3.123-3.25-3.123a6.34,6.34,0,0,0-2.82.616l0.46,1.359a5.153,5.153,0,0,1,2.12-.462,1.545,1.545,0,0,1,1.82,1.582v0.141a6.241,6.241,0,0,0-2.05-.309c-1.72,0-2.99.785-2.99,2.424a2.37,2.37,0,0,0,2.63,2.311,2.97,2.97,0,0,0,2.39-1.065V361.1h1.69Zm-1.64-2.676a1.727,1.727,0,0,1-1.96,1.555,1.226,1.226,0,0,1-1.43-1.092c0-.743.63-1.177,1.69-1.177a4.893,4.893,0,0,1,1.7.294v0.42Zm3.93,2.676h1.69V355.16h3.21V361.1h1.7v-7.4h-6.6v7.4Zm9,0h1.6l3.51-4.931V361.1h1.64v-7.4h-1.6c-1.17,1.653-2.33,3.306-3.5,4.959V353.7h-1.65v7.4Zm8.48,0h1.99l1.75-2.494h1.52V361.1h1.69v-7.4h-3.71c-1.86,0-2.91.98-2.91,2.409a2.228,2.228,0,0,0,1.72,2.213Zm3.48-3.768a1.237,1.237,0,0,1-1.46-1.135,1.207,1.207,0,0,1,1.44-1.12h1.8v2.255h-1.78Zm10.36,3.768h3.83c1.68,0,2.73-.757,2.73-2a1.822,1.822,0,0,0-1.52-1.849,1.762,1.762,0,0,0,1.19-1.695c0-1.135-.97-1.849-2.44-1.849h-3.79v7.4Zm1.66-1.345v-1.849h1.84c0.91,0,1.34.364,1.34,0.9a1.034,1.034,0,0,1-1.26.952h-1.92Zm0-3v-1.75h1.77a0.89,0.89,0,0,1,1.08.84,0.952,0.952,0,0,1-1.11.91h-1.74Zm10.39,4.511a3.86,3.86,0,1,0-3.92-3.852A3.865,3.865,0,0,0,1405.59,361.267Zm0.03-1.471a2.293,2.293,0,0,1-2.26-2.381,2.229,2.229,0,0,1,2.23-2.381,2.287,2.287,0,0,1,2.27,2.381A2.239,2.239,0,0,1,1405.62,359.8Zm8.17,1.471c1.8,0,2.97-1.009,2.97-2.255a1.8,1.8,0,0,0-1.34-1.793,1.747,1.747,0,0,0,1.16-1.681c0-1.149-1.13-1.989-2.76-1.989a4.564,4.564,0,0,0-3.01,1.064l0.76,1.065a3.221,3.221,0,0,1,2.1-.757,1.04,1.04,0,0,1,1.22.841,1.114,1.114,0,0,1-1.31.966h-0.91v1.219h0.91c0.97,0,1.5.378,1.5,0.925a1.222,1.222,0,0,1-1.4,1.022,3.606,3.606,0,0,1-2.32-.882l-0.8,1.12A4.767,4.767,0,0,0,1413.79,361.267Zm5.01-.168h1.66v-4.9l2.31,3.292,2.32-3.32V361.1h1.71v-7.4h-1.68l-2.32,3.432-2.31-3.432h-1.69v7.4Zm13.92,0.168a3.86,3.86,0,1,0-3.92-3.852A3.868,3.868,0,0,0,1432.72,361.267Zm0.03-1.471a2.285,2.285,0,0,1-2.25-2.381,2.221,2.221,0,0,1,2.22-2.381,2.287,2.287,0,0,1,2.27,2.381A2.239,2.239,0,0,1,1432.75,359.8Zm4.58,1.3h1.9l2.12-3.152,1.13,1.289V361.1h1.7v-1.863l1.13-1.289,2.12,3.152h1.9l-2.88-4.286,2.78-3.11h-1.97l-3.08,3.628V353.7h-1.7v3.628l-3.07-3.628h-1.97l2.79,3.11Zm13.46,0h1.7v-2.984h3.26V361.1h1.7v-7.4h-1.7v3h-3.26v-3h-1.7v7.4Zm15.27,0v-4.385c0-1.975-1.07-3.123-3.25-3.123a6.373,6.373,0,0,0-2.82.616l0.47,1.359a5.106,5.106,0,0,1,2.11-.462,1.54,1.54,0,0,1,1.82,1.582v0.141a6.176,6.176,0,0,0-2.04-.309c-1.73,0-3,.785-3,2.424a2.37,2.37,0,0,0,2.63,2.311,3.007,3.007,0,0,0,2.4-1.065V361.1h1.68Zm-1.64-2.676a1.727,1.727,0,0,1-1.96,1.555,1.226,1.226,0,0,1-1.43-1.092c0-.743.63-1.177,1.69-1.177a4.893,4.893,0,0,1,1.7.294v0.42Zm3.82,2.676h1.86V359.18h-1.86V361.1Z" transform="translate(-1216.94 -293)"/>
  <path id="Сохраняя_традиции" data-name="Сохраняя традиции" class="cls-3" d="M1259.53,313.906a7.777,7.777,0,0,0,6.82-3.477l-3.22-2.288a4.2,4.2,0,0,1-3.47,1.87,4.14,4.14,0,0,1,0-8.229,4.151,4.151,0,0,1,3.39,1.782l3.12-2.42a7.441,7.441,0,0,0-6.47-3.257A8.01,8.01,0,1,0,1259.53,313.906Zm14.03-.022a6.237,6.237,0,1,0-6.56-6.227A6.339,6.339,0,0,0,1273.56,313.884Zm0.05-3.543a2.576,2.576,0,0,1-2.53-2.684,2.5,2.5,0,0,1,2.48-2.685,2.577,2.577,0,0,1,2.53,2.685A2.506,2.506,0,0,1,1273.61,310.341Zm6.04,3.257h4.41l1.87-3.059,1.84,3.059h4.49l-4-6.029,3.91-5.875h-4.42l-1.76,2.926-1.76-2.926h-4.51l3.94,5.9Zm13.47,3.52h4.18v-4.973a4.473,4.473,0,0,0,3.63,1.717c2.82,0,5.26-2.355,5.26-6.227,0-3.851-2.44-6.2-5.28-6.2a4.37,4.37,0,0,0-3.61,1.848v-1.584h-4.18v15.424Zm6.51-6.755a2.733,2.733,0,1,1,2.44-2.75A2.518,2.518,0,0,1,1299.63,310.363Zm11.33,3.5a4.487,4.487,0,0,0,3.5-1.5V313.6h4.14v-6.843a4.983,4.983,0,0,0-1.28-3.785,6.122,6.122,0,0,0-4.53-1.452,11.945,11.945,0,0,0-4.82.924l0.86,2.948a8.335,8.335,0,0,1,3.27-.66c1.61,0,2.38.7,2.38,1.937v0.2a9.118,9.118,0,0,0-2.86-.462c-2.79,0-4.66,1.276-4.66,3.74C1306.96,312.564,1308.69,313.862,1310.96,313.862Zm1.5-2.619a1.315,1.315,0,0,1-1.48-1.3c0-.924.71-1.518,1.92-1.518a4.423,4.423,0,0,1,1.63.308v0.55A1.914,1.914,0,0,1,1312.46,311.243Zm7.83,2.355h4.18v-4.313h3.43V313.6h4.18v-11.9h-4.18v4.225h-3.43v-4.225h-4.18v11.9Zm12.76,0h4.77l2.29-3.433h0.95V313.6h4.2v-11.9h-6.62a5.145,5.145,0,0,0-3.9,1.32,3.767,3.767,0,0,0-1.1,2.839,3.683,3.683,0,0,0,2.2,3.608Zm6.36-6.337c-0.99,0-1.54-.44-1.54-1.188a1.271,1.271,0,0,1,1.54-1.233h1.65v2.421h-1.65Zm6.82,6.337H1351l2.29-3.433h0.94V313.6h4.21v-11.9h-6.63a5.12,5.12,0,0,0-3.89,1.32,3.73,3.73,0,0,0-1.1,2.839,3.668,3.668,0,0,0,2.2,3.608Zm6.35-6.337c-0.99,0-1.54-.44-1.54-1.188a1.276,1.276,0,0,1,1.54-1.233h1.65v2.421h-1.65Zm15.89,6.337h4.18V305.06h3.47v-3.366h-11.13v3.366h3.48V313.6Zm8.55,3.52h4.19v-4.973a4.458,4.458,0,0,0,3.63,1.717c2.81,0,5.25-2.355,5.25-6.227,0-3.851-2.44-6.2-5.28-6.2a4.351,4.351,0,0,0-3.6,1.848v-1.584h-4.19v15.424Zm6.52-6.755a2.733,2.733,0,1,1,2.44-2.75A2.518,2.518,0,0,1,1383.54,310.363Zm11.33,3.5a4.5,4.5,0,0,0,3.5-1.5V313.6h4.13v-6.843a4.98,4.98,0,0,0-1.27-3.785,6.133,6.133,0,0,0-4.54-1.452,12.017,12.017,0,0,0-4.82.924l0.86,2.948a8.422,8.422,0,0,1,3.28-.66c1.61,0,2.38.7,2.38,1.937v0.2a9.118,9.118,0,0,0-2.86-.462c-2.8,0-4.67,1.276-4.67,3.74C1390.86,312.564,1392.6,313.862,1394.87,313.862Zm1.49-2.619a1.312,1.312,0,0,1-1.47-1.3c0-.924.7-1.518,1.91-1.518a4.382,4.382,0,0,1,1.63.308v0.55A1.914,1.914,0,0,1,1396.36,311.243Zm6.93,4.775h3.74l0.22-2.42h6.23v2.42h3.56l0.4-5.787h-1.39v-8.537h-10.6v0.572a21.823,21.823,0,0,1-1.06,7.965h-1.1v5.787Zm5.37-5.787a17.6,17.6,0,0,0,.77-5.017v-0.2h2.42v5.215h-3.19Zm9.46,3.367h3.85l3.96-5.963V313.6h4.05v-11.9h-3.85l-3.96,5.963v-5.963h-4.05v11.9Zm22.71,2.42h3.56l0.4-5.787h-1.39v-8.537h-4.18v8.537h-3.26v-8.537h-4.18v11.9h9.05v2.42Zm4.64-2.42h3.85l3.96-5.963V313.6h4.05v-11.9h-3.85l-3.97,5.963v-5.963h-4.04v11.9Zm13.66,0h3.85l3.96-5.963V313.6h4.05v-11.9h-3.85l-3.96,5.963v-5.963h-4.05v11.9Z" transform="translate(-1216.94 -293)"/>
</svg>
