<svg xmlns="http://www.w3.org/2000/svg" width="77" height="78" viewBox="0 0 77 78">
  <defs>
    <style>
      .cls-1 {
        fill: #fff;
        fill-rule: evenodd;
      }
    </style>
  </defs>
  <path id="Forma_1" data-name="Forma 1" class="cls-1" d="M152.684,2133.7a1.51,1.51,0,0,0,.686.17,1.41,1.41,0,0,0,.766-0.22l15.685-9.93a1.412,1.412,0,0,0,0-2.39l-15.685-9.93a1.451,1.451,0,0,0-1.453-.04,1.412,1.412,0,0,0-.739,1.24v19.85A1.427,1.427,0,0,0,152.684,2133.7Zm2.112-18.52,11.6,7.35-11.6,7.34v-14.69ZM122,2097v78h77v-78H122Zm74.148,2.84v46.8h-71.3v-46.8h71.3Zm-71.3,72.32v-22.69h71.3v22.69h-71.3Zm64.167-12.76H154.8v-2.84a1.426,1.426,0,0,0-2.852,0v2.84h-5.7a1.42,1.42,0,1,0,0,2.84h5.7v2.83a1.426,1.426,0,0,0,2.852,0v-2.83h34.223A1.42,1.42,0,1,0,189.019,2159.4Zm-57.038-4.25a1.416,1.416,0,0,0-1.425,1.41v8.51a1.426,1.426,0,0,0,2.851,0v-8.51A1.416,1.416,0,0,0,131.981,2155.15Zm5.7,0a1.417,1.417,0,0,0-1.426,1.41v8.51a1.426,1.426,0,0,0,2.852,0v-8.51A1.416,1.416,0,0,0,137.685,2155.15Z" transform="translate(-122 -2097)"/>
</svg>
