<svg xmlns="http://www.w3.org/2000/svg" width="92" height="94" viewBox="0 0 92 94">
  <defs>
    <style>
      .cls-1 {
        fill: #fff;
        fill-rule: evenodd;
      }
    </style>
  </defs>
  <path id="Forma_1" data-name="Forma 1" class="cls-1" d="M157.132,1799a23.752,23.752,0,0,0-23.736,23.71v6.46a7.73,7.73,0,0,0,7.55,7.73,16.833,16.833,0,0,0,2.905,5.45,23.355,23.355,0,0,0-6.474,6.93,1.4,1.4,0,0,0,.471,1.92,1.46,1.46,0,0,0,.723.2,1.39,1.39,0,0,0,1.2-.68,20.468,20.468,0,0,1,6.019-6.31,16.944,16.944,0,0,0,22.693,0,20.66,20.66,0,0,1,3,2.47,20.2,20.2,0,0,1,3.012,3.84,1.389,1.389,0,0,0,1.2.68,1.453,1.453,0,0,0,.721-0.2,1.4,1.4,0,0,0,.475-1.92,23.059,23.059,0,0,0-3.429-4.37,23.788,23.788,0,0,0-3.045-2.56,16.933,16.933,0,0,0,2.9-5.45,7.738,7.738,0,0,0,4.754-1.79v1.52a2.964,2.964,0,0,1-2.959,2.96,1.4,1.4,0,1,0,0,2.79,5.76,5.76,0,0,0,5.755-5.75v-13.92A23.754,23.754,0,0,0,157.132,1799Zm-19.493,33.66a4.892,4.892,0,0,1-1.448-3.49,4.944,4.944,0,0,1,4.025-4.85c-0.03.41-.046,0.83-0.046,1.25v6.26a16.916,16.916,0,0,0,.144,2.21A4.906,4.906,0,0,1,137.639,1832.66Zm33.661-.83a14.168,14.168,0,0,1-28.335,0v-5.98q0.435,0.03.871,0.03a13.262,13.262,0,0,0,11.026-5.96,13.263,13.263,0,0,0,11.026,5.96,13.056,13.056,0,0,0,5.385-1.15c0.016,0.28.027,0.56,0.027,0.84v6.26h0Zm-28.108-8.76a14.168,14.168,0,0,1,27.609-1.22,10.335,10.335,0,0,1-4.913,1.24,10.442,10.442,0,0,1-9.718-6.71,1.394,1.394,0,0,0-2.615,0,10.441,10.441,0,0,1-9.718,6.71C143.621,1823.09,143.406,1823.08,143.192,1823.07Zm30.759,10.97a16.916,16.916,0,0,0,.144-2.21v-6.26c0-.42-0.016-0.84-0.046-1.25A4.936,4.936,0,0,1,173.951,1834.04Zm4.123-10.81a7.616,7.616,0,0,0-4.485-1.77,16.969,16.969,0,0,0-32.913,0,7.732,7.732,0,0,0-4.485,1.77v-0.52a20.942,20.942,0,0,1,41.883,0v0.52Zm-11.635,6.83a4.265,4.265,0,0,0-6.053,0,1.4,1.4,0,1,0,1.977,1.97,1.5,1.5,0,0,1,2.1,0,1.4,1.4,0,0,0,1.977,0A1.389,1.389,0,0,0,166.439,1830.06Zm-12.559,0a4.266,4.266,0,0,0-6.054,0,1.4,1.4,0,1,0,1.977,1.97,1.5,1.5,0,0,1,2.1,0,1.4,1.4,0,0,0,1.977,0A1.389,1.389,0,0,0,153.88,1830.06Zm7.6,7.39a1.391,1.391,0,0,0-1.977,0,3.372,3.372,0,0,1-4.743,0,1.4,1.4,0,1,0-1.977,1.97,6.153,6.153,0,0,0,8.7,0A1.389,1.389,0,0,0,161.481,1837.45Zm23.386,28.18a1.393,1.393,0,0,0,1.4-1.39v-5.99a5.582,5.582,0,0,0-5.579-5.57H133.58a5.582,5.582,0,0,0-5.58,5.57v29.18a5.582,5.582,0,0,0,5.58,5.57h47.106a5.582,5.582,0,0,0,5.579-5.57v-18.54a1.4,1.4,0,1,0-2.795,0v18.54a2.787,2.787,0,0,1-2.784,2.78H133.58a2.786,2.786,0,0,1-2.784-2.78v-29.18a2.786,2.786,0,0,1,2.784-2.78h47.106a2.788,2.788,0,0,1,2.784,2.78v5.99A1.392,1.392,0,0,0,184.867,1865.63Zm-27.735,1.34a5.865,5.865,0,1,0,5.871,5.87A5.874,5.874,0,0,0,157.132,1866.97Zm0,8.94a3.07,3.07,0,1,1,3.075-3.07A3.078,3.078,0,0,1,157.132,1875.91Zm44.132-76.82a19.377,19.377,0,0,0-11.555,3.73,1.4,1.4,0,1,0,1.654,2.25,16.569,16.569,0,0,1,9.9-3.19c8.79,0,15.941,6.6,15.941,14.72s-7.151,14.71-15.941,14.71a17.618,17.618,0,0,1-3.838-.43,1.4,1.4,0,0,0-1.416.5c-1.224,1.58-3.861,2.5-6.124,2.99a19.122,19.122,0,0,0,1.9-4.87,1.391,1.391,0,0,0-.522-1.45,14.266,14.266,0,0,1-5.935-11.45,13.86,13.86,0,0,1,3.109-8.73,1.4,1.4,0,1,0-2.184-1.75,16.656,16.656,0,0,0-3.72,10.48,16.932,16.932,0,0,0,6.3,13.09,13.155,13.155,0,0,1-3.072,5.55,1.393,1.393,0,0,0,.988,2.38h0.081c0.316-.02,7.367-0.46,10.79-3.85a20.188,20.188,0,0,0,3.645.33c10.331,0,18.735-7.85,18.735-17.5S211.6,1799.09,201.264,1799.09Zm-4.446,18.07a1.428,1.428,0,0,0-1.657.16A1.4,1.4,0,1,0,196.818,1817.16Zm10.27-.03a1.395,1.395,0,1,0,.718,1.46A1.391,1.391,0,0,0,207.088,1817.13Zm-5.33-.02a1.4,1.4,0,0,0-1.907,1.81A1.4,1.4,0,1,0,201.758,1817.11Z" transform="translate(-128 -1799)"/>
</svg>
