<svg xmlns="http://www.w3.org/2000/svg" xmlns:xlink="http://www.w3.org/1999/xlink" preserveAspectRatio="xMidYMid" width="36.906" height="36.97" viewBox="0 0 36.906 36.97">
  <defs>
    <style>
      .cls-1 {
        fill: #1e44d0;
      }

      .cls-2 {
        fill: #fefcfd;
        fill-rule: evenodd;
      }
    </style>
  </defs>
  <g>
    <ellipse cx="18.453" cy="18.485" rx="18.453" ry="18.485" class="cls-1"/>
    <path d="M18.000,28.660 C12.492,28.660 8.000,24.168 8.000,18.660 C8.000,13.152 12.492,8.660 18.000,8.660 C23.508,8.660 28.000,13.135 28.000,18.660 C28.000,24.185 23.508,28.660 18.000,28.660 ZM18.000,10.072 C13.267,10.072 9.411,13.927 9.411,18.660 C9.411,23.393 13.267,27.248 18.000,27.248 C22.733,27.248 26.589,23.393 26.589,18.660 C26.589,13.927 22.733,10.072 18.000,10.072 ZM16.692,23.652 C16.554,23.789 16.365,23.858 16.193,23.858 C16.003,23.858 15.831,23.789 15.694,23.652 C15.418,23.376 15.418,22.929 15.694,22.653 L19.738,18.608 L15.694,14.563 C15.418,14.288 15.418,13.841 15.694,13.565 C15.969,13.290 16.417,13.290 16.692,13.565 L21.236,18.109 C21.374,18.247 21.442,18.419 21.442,18.608 C21.442,18.798 21.374,18.970 21.236,19.107 L16.692,23.652 Z" class="cls-2"/>
  </g>
</svg>
