<svg xmlns="http://www.w3.org/2000/svg" width="47" height="53" viewBox="0 0 47 53">
  <defs>
    <style>
      .cls-1 {
        fill: #fec321;
        fill-rule: evenodd;
      }
    </style>
  </defs>
  <path id="Forma_1" data-name="Forma 1" class="cls-1" d="M1506.7,1760.22a40.208,40.208,0,0,0,16.06,0,12.485,12.485,0,0,0,1.98-.64v2.05a6.741,6.741,0,0,1-3,1.12,36.023,36.023,0,0,1-7.01.63,30.1,30.1,0,0,1-8.54-1.04,1.03,1.03,0,0,0-.63,1.96,31.449,31.449,0,0,0,9.17,1.14,35.752,35.752,0,0,0,8.03-.81c0.27-.07.53-0.14,0.77-0.21l-1.23,7.51a1.03,1.03,0,0,0,.84,1.18,0.985,0.985,0,0,0,.17.02,1.018,1.018,0,0,0,1-.87l1.45-8.83a2.057,2.057,0,0,0,1.01-1.7v-4.41c0-1.29-1.31-2.24-4.01-2.9a40.208,40.208,0,0,0-16.06,0c-2.69.66-4,1.61-4,2.9S1504.01,1759.56,1506.7,1760.22Zm1.03-3.92a39.259,39.259,0,0,1,14.01,0,1.621,1.621,0,1,1,0,2.04,39.259,39.259,0,0,1-14.01,0A1.621,1.621,0,1,1,1507.73,1756.3Zm14.65,18.68c-0.07-.03-0.13-0.05-0.19-0.08a1.238,1.238,0,0,0-1.65.4,1.734,1.734,0,0,1-.15.19,6.026,6.026,0,0,1-3.86,1.02c-2.43,0-3.78-.78-3.93-1.11a1.2,1.2,0,0,1,.43-0.37,1.037,1.037,0,0,0-.45-1.92c-1.16-.07-2.35-0.11-3.55-0.11-8.93,0-17.97,2.19-17.97,6.39v14.22c0,4.19,9.04,6.39,17.97,6.39s17.97-2.2,17.97-6.39v-14.22C1527,1777.09,1524.11,1775.64,1522.38,1774.98Zm2.58,18.63c0,0.67-1.11,1.81-4.25,2.8a45.347,45.347,0,0,1-23.36,0c-3.13-.99-4.25-2.13-4.25-2.8v-11.09c3.17,2.15,9.58,3.27,15.93,3.27s12.76-1.12,15.93-3.27v11.09h0Zm-27.25-11.3a6.009,6.009,0,0,1,3.17-.72,5.126,5.126,0,0,1,3.37.89,3.719,3.719,0,0,1-2.04.78A30.872,30.872,0,0,1,1497.71,1782.31Zm26-1.42a1.022,1.022,0,0,0-1.02-.97h-0.25a1.034,1.034,0,0,0-.58,1.88c-0.35.13-.73,0.27-1.15,0.4a40.427,40.427,0,0,1-11.68,1.52q-1.575,0-3.09-.09a1.934,1.934,0,0,0,.38-1.15c0-1.93-2.74-2.95-5.44-2.95-2.24,0-4.51.7-5.22,2.04-1.86-.81-2.56-1.64-2.56-2.18,0-.49.59-1.22,2.11-1.97a1.026,1.026,0,0,0,1.01.92h0.26a1.034,1.034,0,0,0,.76-1.72,0.487,0.487,0,0,0,.11-0.04,40.525,40.525,0,0,1,11.68-1.52c0.52,0,1.04.01,1.55,0.02a1.888,1.888,0,0,0-.02.32c0,2.08,3,3.18,5.97,3.18,2.29,0,4.3-.62,5.28-1.61,1.84,0.72,3.15,1.73,3.15,2.42A2.212,2.212,0,0,1,1523.71,1780.89Zm-16.63-3.77a1.026,1.026,0,0,1-1.02,1.03h-0.26a1.035,1.035,0,0,1,0-2.07h0.26A1.035,1.035,0,0,1,1507.08,1777.12Zm5.72,4.12a1.018,1.018,0,0,1-1.01,1.03h-0.26a1.035,1.035,0,0,1,0-2.07h0.26A1.027,1.027,0,0,1,1512.8,1781.24Zm-16.15-10.28v-4.28a11.29,11.29,0,0,0-.78-4.41,1.031,1.031,0,0,1,.57-1.34,1.014,1.014,0,0,1,1.32.58,13.26,13.26,0,0,1,.93,5.17v4.28A1.02,1.02,0,1,1,1496.65,1770.96Zm-8.31,23.69a4.075,4.075,0,0,1-4.16-3.97v-24.37c0-2.99.72-4.44,1.91-6.84,0.07-.13.14-0.26,0.21-0.4h12.43c0.06,0.14.13,0.27,0.2,0.4,1.19,2.4,1.91,3.85,1.91,6.84v3.68a1.02,1.02,0,1,0,2.04,0v-3.68c0-3.48-.9-5.28-2.13-7.76-0.15-.31-0.31-0.62-0.47-0.95a0.147,0.147,0,0,1-.02-0.04c-0.47-.97-0.99-2.08-1.54-3.47v-0.31a2.893,2.893,0,0,0,.73-1.92v-1.98a2.868,2.868,0,0,0-2.85-2.88h-8.18a2.868,2.868,0,0,0-2.85,2.88v1.61l-2.68-1.11a1.008,1.008,0,0,0-1.33.56,1.031,1.031,0,0,0,.55,1.34l2.98,1.24-4.61,2.9a1.032,1.032,0,0,0-.32,1.42,1,1,0,0,0,1.4.34l4.12-2.6c-0.32.74-.63,1.39-0.92,1.99-0.01.01-.01,0.02-0.02,0.03-0.16.33-.32,0.64-0.47,0.95-1.23,2.48-2.13,4.28-2.13,7.76v24.37a6.128,6.128,0,0,0,6.2,6.04A1.035,1.035,0,0,0,1488.34,1794.65Zm-0.73-44.77a0.815,0.815,0,0,1,.81-0.82h8.18a0.815,0.815,0,0,1,.81.82v1.98a0.819,0.819,0,0,1-.29.63,0.265,0.265,0,0,0-.06.05,0.89,0.89,0,0,1-.46.14h-8.18a0.775,0.775,0,0,1-.45-0.14,0.3,0.3,0,0,0-.07-0.05,0.819,0.819,0,0,1-.29-0.63v-1.98Zm0.63,4.85a1.087,1.087,0,0,0,.18.01h8.18a1.087,1.087,0,0,0,.18-0.01q0.495,1.26.96,2.28h-10.46Q1487.745,1755.99,1488.24,1754.73Z" transform="translate(-1480 -1747)"/>
</svg>
