<svg xmlns="http://www.w3.org/2000/svg" width="44" height="41" viewBox="0 0 44 41">
  <defs>
    <style>
      .cls-1 {
        fill: #fec321;
        fill-rule: evenodd;
      }
    </style>
  </defs>
  <path class="cls-1" d="M400.831,1778.64c1.928-.84,3.214-3.09,3.214-6.29,0-5.39-3.479-6.49-7.714-6.49h-6.2a1.008,1.008,0,0,0-1.134.95v26a1.02,1.02,0,0,0,1.134.95h7.109c4.2,0,7.487-2.06,7.487-7.86v-0.69C404.726,1781.32,403.138,1779.6,400.831,1778.64Zm-9.377-10.45h4.8c3.1,0,5.294.91,5.294,4.42,0,3.63-1.664,4.93-5.143,4.93h-4.953v-9.35Zm10.776,17.59c0,3.93-2,5.65-5.293,5.65h-5.483v-11.72h5.483c3.289,0,5.293,1.45,5.293,5.42v0.65Zm22.914-19.92c-4.424,0-7.865,2.21-7.865,8.13v11.83c0,5.95,3.441,8.17,7.865,8.17s7.865-2.22,7.865-8.17v-11.83C433.009,1768.07,429.568,1765.86,425.144,1765.86Zm5.369,19.96c0,4.01-2,5.84-5.369,5.84s-5.369-1.83-5.369-5.84v-11.83c0-3.97,2-5.8,5.369-5.8s5.369,1.83,5.369,5.8v11.83Zm-8.167-32.81h-3.189a9.543,9.543,0,0,0-8.624,5.52,9.543,9.543,0,0,0-8.625-5.52H398.72a0.915,0.915,0,0,0-.913.92v3.22a9.6,9.6,0,0,0,9.537,9.63h2v25.99a1.1,1.1,0,0,0,1.248.99,1.121,1.121,0,0,0,1.248-.99v-25.99h1.887a9.6,9.6,0,0,0,9.537-9.63v-3.22A0.915,0.915,0,0,0,422.346,1753.01Zm-12.726,10.62-6.531-6.59a0.907,0.907,0,0,0-1.291,0,0.923,0.923,0,0,0,0,1.3l6.53,6.59h-0.984a7.754,7.754,0,0,1-7.711-7.78v-2.3h2.275a7.757,7.757,0,0,1,7.712,7.79v0.99h0Zm11.813-6.48a7.754,7.754,0,0,1-7.711,7.78h-0.985l4.276-4.31a0.937,0.937,0,0,0,0-1.31,0.908,0.908,0,0,0-1.292,0l-4.275,4.32v-0.99a7.757,7.757,0,0,1,7.711-7.79h2.276v2.3h0Zm-2.165-.11a0.908,0.908,0,0,0-1.292,0l-0.324.33a0.925,0.925,0,0,0,0,1.3,0.908,0.908,0,0,0,1.292,0l0.324-.33A0.924,0.924,0,0,0,419.268,1757.04Z" transform="translate(-389 -1753)"/>
</svg>
