<svg xmlns="http://www.w3.org/2000/svg" width="52.188" height="47.31" viewBox="0 0 52.188 47.31">
  <defs>
    <style>
      .cls-1 {
        fill: #fec321;
        fill-rule: evenodd;
      }
    </style>
  </defs>
  <path class="cls-1" d="M415.315,1621.19l-0.673-.58a1.03,1.03,0,0,0-1.466.11,1.045,1.045,0,0,0,.111,1.47l0.675,0.58a1.043,1.043,0,0,0,1.466-.11A1.044,1.044,0,0,0,415.315,1621.19Zm10.39-45.48a14.932,14.932,0,0,0-11.066,4.86,15.027,15.027,0,0,0-26.093,10.19c0,7.48,7.788,16.26,14.321,22.31,1.09,1.01,3.234,2.9,6.372,5.62a1.045,1.045,0,0,0,.681.26,1.065,1.065,0,0,0,.786-0.36,1.044,1.044,0,0,0-.105-1.47c-3.121-2.71-5.249-4.59-6.323-5.58-5.1-4.72-13.653-13.7-13.653-20.78a12.974,12.974,0,0,1,12.947-12.97,12.843,12.843,0,0,1,10.245,5.04,1.045,1.045,0,0,0,1.644,0,12.84,12.84,0,0,1,10.244-5.04,12.975,12.975,0,0,1,12.948,12.97c0,2.82-1.632,6.51-4.851,10.98a82.782,82.782,0,0,1-8.869,10.11,5.188,5.188,0,0,1-3.292,1.48l-0.293.02a5.215,5.215,0,0,1-5.5-4.28l1.951-1.96a8.573,8.573,0,0,0,2.721-6.36,16.417,16.417,0,0,0-1.86-6.79,9.964,9.964,0,0,1-.6-4.7,1.044,1.044,0,0,0-.569-1.07,1.028,1.028,0,0,0-1.195.2l-4.63,4.62a9.991,9.991,0,0,0,0,14.1l2.1,2.11a7.308,7.308,0,0,0,7.718,6.21l0.292-.02a7.282,7.282,0,0,0,4.6-2.07,83.152,83.152,0,0,0,9.1-10.38c3.479-4.83,5.244-8.93,5.244-12.2A15.055,15.055,0,0,0,425.705,1575.71Zm-10.968,24.39a1.045,1.045,0,0,0-1.04,1.05v5.05l-0.557-.56a7.91,7.91,0,0,1,0-11.16l2.84-2.83a9.737,9.737,0,0,0,.8,3.2c2.34,5,2.21,8.13-.448,10.79l-0.557.56v-5.05A1.044,1.044,0,0,0,414.737,1600.1Z" transform="translate(-388.531 -1575.72)"/>
</svg>
