<svg xmlns="http://www.w3.org/2000/svg" width="52.44" height="56.32" viewBox="0 0 52.44 56.32">
  <defs>
    <style>
      .cls-1 {
        fill: #fec321;
        fill-rule: evenodd;
      }
    </style>
  </defs>
  <path class="cls-1" d="M1526.08,1575.41a4.621,4.621,0,0,0-4.36-1.77,10.954,10.954,0,0,0-5.33,1.99,12.578,12.578,0,0,0-1.88,1.58,14.879,14.879,0,0,0,1.45-7.42,9.481,9.481,0,0,0-2.64-6.1c-1.49-1.4-3.3-1.73-4.62-.82-1.84,1.27-1.72,3.09-1.6,4.85a10.555,10.555,0,0,1-.91,5.96,24.319,24.319,0,0,0-5.74-.63,24.648,24.648,0,0,0-5.65.61,10.549,10.549,0,0,1-.9-5.94c0.12-1.76.24-3.58-1.6-4.85-1.34-.92-3.11-0.61-4.61.82a9.412,9.412,0,0,0-2.65,6.08,14.973,14.973,0,0,0,1.45,7.44,12.578,12.578,0,0,0-1.88-1.58,10.954,10.954,0,0,0-5.33-1.99,4.621,4.621,0,0,0-4.36,1.77,4.717,4.717,0,0,0-.03,4.74,11.058,11.058,0,0,0,3.79,4.27,11.181,11.181,0,0,0,5.03,1.97,35.508,35.508,0,0,0-.17,8.48,34.156,34.156,0,0,0,1.7,8.17,11.6,11.6,0,0,0-.43,3.29c0,6.79,4.56,12.31,10.17,12.31a8.788,8.788,0,0,1,11.04,0c5.61,0,10.17-5.52,10.17-12.31a11.762,11.762,0,0,0-.42-3.26,34.79,34.79,0,0,0,1.69-8.2,35.554,35.554,0,0,0-.18-8.48,11.884,11.884,0,0,0,8.83-6.24A4.717,4.717,0,0,0,1526.08,1575.41Zm-16.67-7.85c-0.12-1.79-.08-2.3.6-2.76,0.44-.31,1.18.08,1.72,0.59a7.222,7.222,0,0,1,1.93,4.6,12.877,12.877,0,0,1-1.43,6.63,14.119,14.119,0,0,0-3.81-2.24A13.064,13.064,0,0,0,1509.41,1567.56Zm-22.07,2.41a7.248,7.248,0,0,1,1.93-4.58c0.54-.51,1.28-0.89,1.72-0.59,0.68,0.46.72,0.97,0.6,2.76a13.04,13.04,0,0,0,.98,6.79,13.827,13.827,0,0,0-3.82,2.22A12.8,12.8,0,0,1,1487.34,1569.97Zm-3.15,14.12a8.566,8.566,0,0,1-4.21-1.6,8.831,8.831,0,0,1-3-3.33,2.558,2.558,0,0,1-.15-2.44,2.516,2.516,0,0,1,2.3-.76,8.826,8.826,0,0,1,4.18,1.6,9.484,9.484,0,0,1,2.52,2.49A16.667,16.667,0,0,0,1484.19,1584.09Zm30.97,10.58a33.894,33.894,0,0,1-.94,5.54,7.31,7.31,0,0,0-2.42-1.79,1.151,1.151,0,0,0-1.54.56,1.17,1.17,0,0,0,.56,1.55,4.854,4.854,0,0,1,2.64,2.92,8.794,8.794,0,0,1,.42,2.88c0,5.5-3.53,9.98-7.86,9.98a6.811,6.811,0,0,1-4.73-2,1.141,1.141,0,0,0-1.59,0,6.771,6.771,0,0,1-4.72,2c-4.33,0-7.86-4.48-7.86-9.98a8.985,8.985,0,0,1,.42-2.89l0.03-.06c0.91-2.53,3.27-3.7,7.41-3.7a16,16,0,0,1,2.51.18,19,19,0,0,0,6.02,0,13.834,13.834,0,0,1,1.53-.16,1.162,1.162,0,0,0-.12-2.32,15.8,15.8,0,0,0-1.77.18,16.825,16.825,0,0,1-5.3,0,18.063,18.063,0,0,0-2.87-.21,13.412,13.412,0,0,0-5.76,1.06,7.25,7.25,0,0,0-2.43,1.79,32.911,32.911,0,0,1-.94-5.53,30.916,30.916,0,0,1,.38-9.19,14.4,14.4,0,0,1,1.92-4.79,11.382,11.382,0,0,1,1.13-1.44,11.517,11.517,0,0,1,5.25-3.11,23.452,23.452,0,0,1,11.92.02,11.615,11.615,0,0,1,5.25,3.14c0.16,0.17.31,0.35,0.46,0.53,0.23,0.29.46,0.59,0.67,0.91a14.323,14.323,0,0,1,1.92,4.74A30.856,30.856,0,0,1,1515.16,1594.67Zm8.86-15.51a8.916,8.916,0,0,1-3,3.33,8.506,8.506,0,0,1-4.23,1.6,17.028,17.028,0,0,0-1.65-4.01,9.561,9.561,0,0,1,2.55-2.52,8.826,8.826,0,0,1,4.18-1.6,2.516,2.516,0,0,1,2.3.76A2.558,2.558,0,0,1,1524.02,1579.16Zm-15.59,18.33c-0.13-.01-0.25-0.03-0.37-0.04a1.166,1.166,0,0,0-.24,2.32l0.31,0.03a0.757,0.757,0,0,0,.15.01A1.165,1.165,0,0,0,1508.43,1597.49Zm-13.95,5.08a3.655,3.655,0,1,0,3.63,3.66A3.647,3.647,0,0,0,1494.48,1602.57Zm0,4.98a1.325,1.325,0,1,1,1.31-1.32A1.317,1.317,0,0,1,1494.48,1607.55Zm12.04-4.98a3.655,3.655,0,1,0,3.62,3.66A3.649,3.649,0,0,0,1506.52,1602.57Zm0,4.98a1.325,1.325,0,1,1,1.31-1.32A1.319,1.319,0,0,1,1506.52,1607.55Zm-14.75-19.48a1.161,1.161,0,0,0-1.15,1.17v0.71a1.155,1.155,0,1,0,2.31,0v-0.71A1.163,1.163,0,0,0,1491.77,1588.07Zm17.45,0a1.161,1.161,0,0,0-1.15,1.17v0.71a1.155,1.155,0,1,0,2.31,0v-0.71A1.163,1.163,0,0,0,1509.22,1588.07Z" transform="translate(-1474.28 -1562.34)"/>
</svg>
