<svg xmlns="http://www.w3.org/2000/svg" width="39.438" height="58.72" viewBox="0 0 39.438 58.72">
  <metadata><?xpacket begin="﻿" id="W5M0MpCehiHzreSzNTczkc9d"?>
<x:xmpmeta xmlns:x="adobe:ns:meta/" x:xmptk="Adobe XMP Core 5.6-c140 79.160451, 2017/05/06-01:08:21        ">
   <rdf:RDF xmlns:rdf="http://www.w3.org/1999/02/22-rdf-syntax-ns#">
      <rdf:Description rdf:about=""/>
   </rdf:RDF>
</x:xmpmeta>
                                                                                                    
                                                                                                    
                                                                                                    
                                                                                                    
                                                                                                    
                                                                                                    
                                                                                                    
                                                                                                    
                                                                                                    
                                                                                                    
                                                                                                    
                                                                                                    
                                                                                                    
                                                                                                    
                                                                                                    
                                                                                                    
                                                                                                    
                                                                                                    
                                                                                                    
                                                                                                    
                           
<?xpacket end="w"?></metadata>
<defs>
    <style>
      .cls-1 {
        fill: #fec321;
        fill-rule: evenodd;
      }
    </style>
  </defs>
  <path class="cls-1" d="M407.561,1940.55a31.6,31.6,0,0,1,1.419-4.51,7.521,7.521,0,0,0,5.027,1.99c7.864,0,14.2-10.54,14.2-19.26a2.787,2.787,0,0,0-2.788-2.77c-8.778,0-19.379,6.3-19.379,14.11A7.2,7.2,0,0,0,407.2,1934a31.255,31.255,0,0,0-1.619,4.41c-0.431-.69-0.88-1.36-1.349-2a5.375,5.375,0,0,0,.819-2.82c0-5.68-7.624-10.24-13.936-10.24a2.313,2.313,0,0,0-2.321,2.3c0,6.27,4.6,13.85,10.308,13.85a5.554,5.554,0,0,0,3.452-1.23c0.516,0.74,1.012,1.51,1.484,2.33A17.235,17.235,0,1,0,407.561,1940.55Zm17.855-22.1a0.327,0.327,0,0,1,.325.32c0,7.57-5.414,16.81-11.734,16.81a5.25,5.25,0,0,1-3.8-1.7c-0.054-.05-0.09-0.11-0.142-0.16,2.856-5.34,7.145-8.2,12.466-10.47a1.225,1.225,0,1,0-.972-2.25c-4.813,2.05-9.538,4.81-12.907,10.27a4.717,4.717,0,0,1-.154-1.16C408.5,1923.83,417.8,1918.45,425.416,1918.45Zm-22.907,15.81a34.648,34.648,0,0,0-6.873-5.82,1.242,1.242,0,0,0-1.708.34,1.22,1.22,0,0,0,.342,1.7,31.363,31.363,0,0,1,6.79,5.86,3.119,3.119,0,0,1-1.957.71c-4.112,0-7.775-6.26-7.843-11.26,5.033,0.07,11.329,3.71,11.329,7.8A3,3,0,0,1,402.509,1934.26Zm-7.162,28.28a4.421,4.421,0,0,0-.983,2.67v1.36a14.514,14.514,0,0,1-3.061-8.08,3.824,3.824,0,0,1,1.127,1.42,5.533,5.533,0,0,0,.9,1.32,3.632,3.632,0,0,0,2.291.9A4.623,4.623,0,0,1,395.347,1962.54Zm25.468-4.94a14.779,14.779,0,0,1-23.988,11.46v-3.85a2.076,2.076,0,0,1,.543-1.27,3.659,3.659,0,0,0,.849-2.19c0-1.79-1.685-1.98-2.318-2.05a1.912,1.912,0,0,1-.827-0.2,4.005,4.005,0,0,1-.487-0.77,5.154,5.154,0,0,0-3.216-2.86A14.738,14.738,0,0,1,407.534,1943a3.157,3.157,0,0,0-.976.6,1.217,1.217,0,0,0-.056,1.67c-0.087.05-.194,0.11-0.327,0.18-1.293.65-2.792,2.01-3.022,3.46a2.192,2.192,0,0,0,.62,1.95c0.013,0.01.027,0.03,0.04,0.04a5.076,5.076,0,0,0-1.431,1,4.343,4.343,0,0,0-1.092,3.79c0.017,0.19.035,0.36,0.035,0.53,0,1.51,1.4,2.61,3.319,2.61a11.5,11.5,0,0,1,3.655.49,4.543,4.543,0,0,0,.45,1.6,1.917,1.917,0,0,1,.233.83l-0.08.23a2.728,2.728,0,0,0-.617,1.85,6.3,6.3,0,0,0,1.708,3.58,1.237,1.237,0,0,0,.916.4,1.569,1.569,0,0,0,.305-0.03c0.451-.12,4.407-1.2,4.407-3.95a0.83,0.83,0,0,1,.394-0.84,2.387,2.387,0,0,0,1-1.92,8.307,8.307,0,0,1,1.77-2.65,1.222,1.222,0,0,0,.313-0.93,1.238,1.238,0,0,0-.471-0.86,8.723,8.723,0,0,1-1.2-1.14,1.118,1.118,0,0,0,.183,0,5.007,5.007,0,0,0,2.7-1.63A14.57,14.57,0,0,1,420.815,1957.6Zm-12.306-4.79a4.824,4.824,0,0,0,2.4.48l0.793,0.01a15.084,15.084,0,0,0,2.039-.05,2.763,2.763,0,0,0,.185,1.31,9.058,9.058,0,0,0,2.229,3.17,6.113,6.113,0,0,0-1.564,3.24,1.191,1.191,0,0,1-.189.17,3.224,3.224,0,0,0-1.244,2.69c0,0.4-.871.96-1.808,1.33a3.087,3.087,0,0,1-.6-1.33l0.1-.35a2.557,2.557,0,0,0,.593-1.73,4.141,4.141,0,0,0-.439-1.8,2.189,2.189,0,0,1-.257-0.96c0-2.16-3.32-2.61-6.105-2.61a2.7,2.7,0,0,1-.856-0.16c0-.23-0.021-0.48-0.045-0.75a2,2,0,0,1,.38-1.84,5,5,0,0,1,3.306-1.03A2.025,2.025,0,0,1,408.509,1952.81Zm-0.549-2.64a4.017,4.017,0,0,1,1.557-.33c2.686,0,4.177.58,4.385,0.86a6.6,6.6,0,0,1-2.157.16l-0.836-.01a2.562,2.562,0,0,1-1.349-.25A4.176,4.176,0,0,0,407.96,1950.17Zm9.682,2.75a5.026,5.026,0,0,0-1.66-.93,2.5,2.5,0,0,0,.335-1.3c0-2.1-2.479-3.3-6.8-3.3a6.829,6.829,0,0,0-3.017.75,4.838,4.838,0,0,1,.79-0.51,3.042,3.042,0,0,0,1.9-2.07,1.773,1.773,0,0,0-.015-0.57,20.189,20.189,0,0,1,3.421-.53,14.8,14.8,0,0,1,6.766,6.83A11.158,11.158,0,0,1,417.642,1952.92Z" transform="translate(-388.781 -1916)"/>
</svg>
