<svg xmlns="http://www.w3.org/2000/svg" width="35.34" height="59" viewBox="0 0 35.34 59">
  <defs>
    <style>
      .cls-1 {
        fill: #fec321;
        fill-rule: evenodd;
      }
    </style>
  </defs>
  <path id="Forma_1" data-name="Forma 1" class="cls-1" d="M1525.67,1938.08l-5.26-11.41v-4.7a1.978,1.978,0,0,0-1.96-1.97h-19.63a1.978,1.978,0,0,0-1.96,1.97v4.7l-5.26,11.41h0a7.015,7.015,0,0,0-.63,2.88v35.09a2.949,2.949,0,0,0,2.95,2.95h29.44a2.907,2.907,0,0,0,2.94-2.85v-35.19A7.015,7.015,0,0,0,1525.67,1938.08Zm-6.24-8.85,4.36,9.46h-8.71Zm-20.61-7.26h19.63v3.93h-19.63v-3.93Zm13.74,55.06h-18.64a0.984,0.984,0,0,1-.99-0.98v-26.5a9.843,9.843,0,0,1,8.84,9.78,11.79,11.79,0,0,0,10.79,11.75v5.95h0Zm0-36.07v28.16a9.852,9.852,0,0,1-8.83-9.79,11.806,11.806,0,0,0-10.8-11.75v-6.62c0-.1.01-0.2,0.02-0.31h19.63C1512.57,1940.76,1512.56,1940.86,1512.56,1940.96Zm0.39-2.27h-19.46l4.98-10.82h19.43l-4.71,10.21C1513.1,1938.28,1513.03,1938.48,1512.95,1938.69Zm11.39,37.46a0.936,0.936,0,0,1-.98.88h-8.84v-5.86a15.351,15.351,0,0,1,8.81,3.51l1.01,0.84v0.63Zm0-3.17a17.2,17.2,0,0,0-9.82-3.77v-28.25c0-.1.01-0.2,0.02-0.31h9.78c0.01,0.11.02,0.21,0.02,0.31v32.02h0Zm-19.63-44.13c-2.8,0-4.91,1.27-4.91,2.95v2.95a0.985,0.985,0,1,0,1.97,0v-0.57a7.867,7.867,0,0,0,5.88,0v0.57a0.985,0.985,0,1,0,1.97,0v-2.95C1509.62,1930.12,1507.51,1928.85,1504.71,1928.85Zm0,3.94c-1.9,0-2.94-.74-2.94-0.99s1.04-.98,2.94-0.98,2.94,0.74,2.94.98S1506.61,1932.79,1504.71,1932.79Z" transform="translate(-1490.97 -1920)"/>
</svg>
